<?xml version="1.0" standalone="no"?><!DOCTYPE svg PUBLIC "-//W3C//DTD SVG 1.1//EN" "http://www.w3.org/Graphics/SVG/1.1/DTD/svg11.dtd"><svg t="1768907360122" class="icon" viewBox="0 0 1024 1024" version="1.1" xmlns="http://www.w3.org/2000/svg" p-id="12179" xmlns:xlink="http://www.w3.org/1999/xlink" width="96" height="96"><path d="M853.333333 85.333333h-384c-46.933333 0-85.333333 38.4-85.333333 85.333334v512c0 46.933333 38.4 85.333333 85.333333 85.333333h170.666667v25.6c0 38.4-38.4 72.533333-85.333333 72.533333H311.466667c-29.866667 0-55.466667-21.333333-55.466667-46.933333v-55.466667c51.2-17.066667 85.333333-64 85.333333-119.466666 0-72.533333-55.466667-128-128-128s-128 55.466667-128 128c0 55.466667 34.133333 102.4 85.333334 119.466666v55.466667C170.666667 883.2 234.666667 938.666667 311.466667 938.666667H554.666667c93.866667 0 170.666667-64 170.666666-145.066667V768h128c46.933333 0 85.333333-38.4 85.333334-85.333333V170.666667c0-46.933333-38.4-85.333333-85.333334-85.333334zM213.333333 682.666667c-25.6 0-42.666667-17.066667-42.666666-42.666667s17.066667-42.666667 42.666666-42.666667 42.666667 17.066667 42.666667 42.666667-17.066667 42.666667-42.666667 42.666667z m640 0h-384v-85.333334h170.666667v-85.333333h-170.666667v-42.666667h170.666667V384h-170.666667V341.333333h170.666667V256h-170.666667V170.666667h384v512z" fill="#606060" p-id="12180"></path></svg>