<?xml version="1.0" standalone="no"?><!DOCTYPE svg PUBLIC "-//W3C//DTD SVG 1.1//EN" "http://www.w3.org/Graphics/SVG/1.1/DTD/svg11.dtd"><svg t="1768907396797" class="icon" viewBox="0 0 1024 1024" version="1.1" xmlns="http://www.w3.org/2000/svg" p-id="13200" xmlns:xlink="http://www.w3.org/1999/xlink" width="96" height="96"><path d="M549.547 658.773h-204.8c-20.48 0-34.134-17.066-34.134-34.133v-13.653c0-20.48 17.067-34.134 34.134-34.134h204.8c20.48 0 34.133 17.067 34.133 34.134v13.653c0 17.067-13.653 34.133-34.133 34.133z" p-id="13201"></path><path d="M488.107 515.413v204.8c0 20.48-17.067 34.134-34.134 34.134H440.32c-20.48 0-34.133-17.067-34.133-34.134v-204.8c0-20.48 17.066-34.133 34.133-34.133h13.653c20.48-3.413 34.134 13.653 34.134 34.133z m276.48-375.466s-238.934 215.04-139.947 358.4c0 0 78.507 126.293 221.867 58.026 0 0 71.68-27.306 81.92-129.706 0 0 10.24-116.054-163.84-286.72z" p-id="13202"></path><path d="M761.173 628.053c3.414 17.067 0 27.307 0 27.307-20.48 187.733-150.186 245.76-157.013 249.173-276.48 133.12-423.253-98.986-430.08-112.64C6.827 552.96 351.573 187.733 443.733 92.16c61.44 64.853 112.64 122.88 153.6 177.493l30.72-71.68C583.68 143.36 532.48 81.92 467.627 20.48L447.147 0l-23.894 20.48c-20.48 20.48-532.48 484.693-307.2 808.96 0 3.413 116.054 184.32 324.267 184.32 58.027 0 119.467-13.653 191.147-47.787 6.826-3.413 170.666-71.68 197.973-303.786 0-3.414 3.413-23.894-3.413-58.027l-64.854 23.893z" p-id="13203"></path></svg>