<?xml version="1.0" standalone="no"?><!DOCTYPE svg PUBLIC "-//W3C//DTD SVG 1.1//EN" "http://www.w3.org/Graphics/SVG/1.1/DTD/svg11.dtd"><svg t="1768906946682" class="icon" viewBox="0 0 1024 1024" version="1.1" xmlns="http://www.w3.org/2000/svg" p-id="5960" xmlns:xlink="http://www.w3.org/1999/xlink" width="96" height="96"><path d="M928 320H704V96c0-17.066667-14.933333-32-32-32h-576C78.933333 64 64 78.933333 64 96v832c0 17.066667 14.933333 32 32 32h832c17.066667 0 32-14.933333 32-32v-576c0-17.066667-14.933333-32-32-32zM128 128h512v768H128V128z m768 768h-192V384h192v512z" fill="#212121" p-id="5961"></path><path d="M320 256h-96c-17.066667 0-32 14.933333-32 32s14.933333 32 32 32H320c17.066667 0 32-14.933333 32-32S337.066667 256 320 256zM544 256H448c-17.066667 0-32 14.933333-32 32S430.933333 320 448 320h96c17.066667 0 32-14.933333 32-32s-14.933333-32-32-32zM320 448h-96c-17.066667 0-32 14.933333-32 32s14.933333 32 32 32H320c17.066667 0 32-14.933333 32-32S337.066667 448 320 448zM544 448H448c-17.066667 0-32 14.933333-32 32S430.933333 512 448 512h96c17.066667 0 32-14.933333 32-32s-14.933333-32-32-32zM320 640h-96c-17.066667 0-32 14.933333-32 32s14.933333 32 32 32H320c17.066667 0 32-14.933333 32-32S337.066667 640 320 640zM544 640H448c-17.066667 0-32 14.933333-32 32S430.933333 704 448 704h96c17.066667 0 32-14.933333 32-32s-14.933333-32-32-32zM800 608c17.066667 0 32-14.933333 32-32v-96c0-17.066667-14.933333-32-32-32s-32 14.933333-32 32V576c0 17.066667 14.933333 32 32 32zM800 832c17.066667 0 32-14.933333 32-32V704c0-17.066667-14.933333-32-32-32S768 686.933333 768 704v96c0 17.066667 14.933333 32 32 32z" fill="#212121" p-id="5962"></path></svg>