<?xml version="1.0" standalone="no"?><!DOCTYPE svg PUBLIC "-//W3C//DTD SVG 1.1//EN" "http://www.w3.org/Graphics/SVG/1.1/DTD/svg11.dtd"><svg t="1770372536806" class="icon" viewBox="0 0 1024 1024" version="1.1" xmlns="http://www.w3.org/2000/svg" p-id="9371" xmlns:xlink="http://www.w3.org/1999/xlink" width="96" height="96"><path d="M685.373793 283.471448a39.300414 39.300414 0 1 0 78.600828 0 39.300414 39.300414 0 0 0-78.600828 0z m-104.448-65.500689a47.13931 47.13931 0 1 0 94.278621 0 47.13931 47.13931 0 0 0-94.278621 0zM437.142069 197.031724a55.013517 55.013517 0 1 0 110.027034 0 55.013517 55.013517 0 0 0-110.027034 0z m-177.152 7.838897a70.726621 70.726621 0 1 0 141.453241 0.141241 70.726621 70.726621 0 0 0-141.453241-0.141241z m330.257655 87.993379h-0.105931c-1.483034 0-2.895448-0.247172-4.343172-0.247172-1.447724 0-2.930759 0.176552-4.378483 0.247172h-165.252414c-1.483034 0-2.895448-0.247172-4.343172-0.247172-1.412414 0-2.895448 0.176552-4.378483 0.247172h-3.072v0.176552a120.196414 120.196414 0 0 0-56.002207 222.172689v0.105931l2.295172 1.341794s67.972414 36.122483-2.295172 207.377655a120.408276 120.408276 0 0 0 188.133517 138.24v0.141241a545.615448 545.615448 0 0 0 199.574069-414.790621c0-1.518345 0.247172-2.966069 0.247173-4.484413a150.49269 150.49269 0 0 0-146.078897-150.280828z" p-id="9372" fill="#ea843a"></path></svg>