<?xml version="1.0" standalone="no"?><!DOCTYPE svg PUBLIC "-//W3C//DTD SVG 1.1//EN" "http://www.w3.org/Graphics/SVG/1.1/DTD/svg11.dtd"><svg t="1768212267484" class="icon" viewBox="0 0 1024 1024" version="1.1" xmlns="http://www.w3.org/2000/svg" p-id="2687" xmlns:xlink="http://www.w3.org/1999/xlink" width="96" height="96"><path d="M249.224533 1023.709867c-6.2976-0.0512-12.706133 0.298667-19.029333 0-6.784-0.315733-6.775467 1.723733-6.357333-6.408534 0.9472-18.372267 12.100267-42.6752 13.7728-62.08l15.445333-47.428266c-30.165333-18.7392-63.1296-33.288533-92.1088-54.8864C84.5056 795.938133 49.211733 728.951467 42.7264 634.112c-3.3536-49.092267 4.3776-93.5424 17.9456-142.301867 7.9616-28.5952 29.175467-71.662933 32.6144-97.988266 4.1472-31.7952-1.979733-72.183467-0.110933-105.437867 2.798933-49.928533 18.321067-140.706133 42.973866-184.516267 9.463467-16.8192 22.8864-31.837867 41.309867-38.7328 22.1184-8.2688 41.514667-3.84 63.402667 4.3008 22.519467 8.3712 55.3984 28.484267 75.588266 42.376534 13.457067 9.258667 51.421867 44.578133 61.858134 47.650133 13.533867 3.985067 39.432533-5.9648 54.272-7.7312 12.305067-1.4592 30.464-3.4816 42.129066-4.215467 56.96-3.592533 112.7936 4.949333 168.5248 12.663467 41.890133-29.815467 87.168-72.302933 136.7552-90.743467 40.072533-14.907733 72.5504-13.7984 98.952534 23.338667 35.925333 50.5344 50.090667 168.328533 52.949333 229.307733 1.237333 26.359467-3.643733 59.588267-0.187733 84.437334 2.952533 21.1712 24.704 65.390933 31.709866 90.461866 49.425067 176.750933 2.065067 305.851733-159.3856 392.721067-9.838933 5.290667-20.932267 6.562133-28.074666 13.9008 7.210667 14.788267 35.6096 114.005333 29.380266 120.098133-6.997333 0.068267-14.071467-0.093867-21.0688 0l-29.5168-109.5168c-1.698133-1.792-36.027733 8.704-42.231466 10.410667-5.486933 1.5104-11.588267 6.178133-12.501334 6.417067-120.0896 31.0784-250.624 32.238933-370.730666 0-18.4832-4.957867-36.215467-12.219733-54.766934-16.861867l-25.284266 109.5424zM68.0704 652.987733c0.162133 1.3824-0.196267 2.8416 0 4.215467 1.194667 8.541867 4.078933 11.921067 4.215467 12.637867 10.914133 58.504533 29.013333 93.713067 71.620266 134.8096 160.605867 154.9056 484.5568 160.315733 671.2832 49.8944 61.7728-36.5312 134.272-113.8432 137.5744-188.919467 7.304533-3.5072 4.1472-16.264533 4.1984-23.185067 0.3584-46.7968-1.348267-79.9744-13.6448-125.354666-8.789333-32.443733-32.9216-80.7424-36.821333-110.626134-3.968-30.395733 1.7152-68.974933-0.1536-100.949333-2.952533-50.3552-14.600533-128.384-35.6608-174.984533-31.018667-68.6592-69.4528-47.6928-121.591467-16.136534-36.027733 21.802667-67.293867 50.6112-101.674666 73.847467l-54.929067-11.2128c-54.647467-4.795733-109.576533-6.280533-164.1216 0-16.657067 1.92-42.606933 12.330667-58.461867 7.7312-41.514667-30.088533-85.563733-70.331733-133.239466-90.026667-50.850133-21.0176-68.5312-5.333333-87.620267 43.101867-14.993067 38.0416-27.9552 106.154667-30.583467 146.3552-2.346667 35.9168 4.616533 79.368533 0.110934 113.860267-2.688 20.616533-18.090667 47.9232-24.3456 68.334933-18.961067 61.934933-33.646933 122.658133-26.1376 186.606933z" fill="#4D2B23" p-id="2688"></path><path d="M699.989333 931.029333c5.4528 3.191467 6.818133 13.303467 8.1664 19.217067 5.5296 24.226133 10.248533 48.768 12.9024 73.463467-136.1408 0.1536-272.503467 0.5632-408.644266 0 0.5888-31.573333 8.644267-62.4896 16.853333-92.680534 120.098133 32.238933 250.632533 31.0784 370.730667 0z" fill="#F9F0DF" p-id="2689"></path><path d="M699.989333 931.029333c0.913067-0.238933 7.0144-4.906667 12.501334-6.417066 6.203733-1.706667 40.533333-12.2112 42.231466-10.410667l29.5168 109.5168c-21.000533 0.264533-42.1888-0.0256-63.189333 0-2.653867-24.686933-7.3728-49.237333-12.9024-73.463467-1.348267-5.9136-2.7136-16.0256-8.1664-19.217066z" fill="#F5C17E" p-id="2690"></path><path d="M329.2672 931.029333c-8.209067 30.190933-16.264533 61.1072-16.853333 92.680534-21.009067-0.085333-42.180267 0.162133-63.189334 0l25.284267-109.5424c18.551467 4.642133 36.283733 11.895467 54.766933 16.861866z" fill="#F6C381" p-id="2691"></path><path d="M409.309867 88.456533l58.990933-4.1984-0.0256 16.776534-86.075733 12.433066-6.766934-10.274133c0.2048-15.445333 41.898667-47.223467 46.523734-65.271467-8.507733-7.185067-51.140267 17.8176-54.7584-6.314666l15.445333-9.838934 66.2016-8.721066 10.811733 13.909333-50.338133 61.508267z" fill="#52322A" p-id="2692"></path><path d="M575.709867 0l6.1696 6.459733c4.872533 16.699733-23.714133 29.866667-35.7376 39.799467-3.729067 3.080533-8.9856 8.072533-10.453334 12.706133 17.902933 2.3552 49.578667-9.480533 46.344534 16.861867h-80.042667c-3.2512-27.869867 32.503467-36.104533 46.336-56.874667l-40.081067-6.254933L506.205867 0h69.512533z" fill="#54342B" p-id="2693"></path><path d="M636.791467 96.913067c-3.5328 14.685867 14.805333 6.6304 25.275733 8.405333l-2.065067 12.672c-6.272 9.796267-39.483733-5.000533-52.701866-0.042667-4.565333-21.495467 13.960533-22.929067 25.275733-35.822933l-21.060267-6.306133v-12.629334c11.921067 0.017067 50.474667-3.157333 54.766934 10.538667 1.92 6.126933-23.381333 23.048533-29.4912 23.176533z" fill="#57362B" p-id="2694"></path><path d="M952.763733 665.6256c1.4592-33.134933-14.907733-55.04-42.129066-71.620267-0.785067-0.477867-1.9968-3.285333-5.256534-5.0944-16.853333-9.3696-47.095467-9.156267-66.363733-7.543466-38.749867 3.242667-63.496533 21.154133-96.896 33.706666-8.2176 3.089067-32.187733 11.690667-37.9136 12.637867-34.048 5.614933-64.981333-4.3776-92.501333-23.3472-46.6432-32.1536-61.952-45.934933-124.629334-40.0128-44.4672 4.1984-71.005867 42.769067-110.267733 58.231467-8.1408 3.208533-14.7712 3.3792-22.263467 5.137066-8.337067-0.469333-16.981333 0.699733-25.275733 0-4.1216-0.349867-8.738133 0.571733-12.637867 0-8.866133-1.3056-27.409067-8.6016-37.9136-12.637866-31.726933-12.177067-62.890667-31.086933-98.816-33.885867l-40.200533 4.394667c-18.432 1.706667-43.716267 16.802133-54.186667 32.1792-7.0656 10.376533-9.787733 25.429333-17.4336 35.2256-7.5008-63.9488 7.176533-124.672 26.1376-186.606934 6.2464-20.411733 21.6576-47.7184 24.3456-68.334933 4.497067-34.491733-2.4576-77.943467-0.110933-113.860267 2.619733-40.200533 15.5904-108.3136 30.583467-146.3552 19.089067-48.4352 36.770133-64.119467 87.620266-43.101866 47.675733 19.703467 91.7248 59.938133 133.239467 90.026666 15.863467 4.608 41.813333-5.8112 58.461867-7.7312 54.5536-6.280533 109.474133-4.795733 164.1216 0l54.929066 11.2128c34.3808-23.236267 65.655467-52.053333 101.674667-73.847466 52.138667-31.556267 90.5728-52.522667 121.591467 16.136533 21.051733 46.600533 32.708267 124.629333 35.6608 174.984533 1.877333 31.9744-3.8144 70.562133 0.1536 100.949334 3.899733 29.8752 28.032 78.1824 36.821333 110.626133 12.296533 45.380267 14.0032 78.557867 13.6448 125.354667-0.0512 6.920533 3.106133 19.669333-4.1984 23.185066zM173.397333 311.739733c14.728533 0.3328 19.029333-17.732267 27.204267-25.4464 7.8848-7.432533 22.9632-19.874133 31.9488-27.0336 9.6-7.6544 61.824-38.843733 62.8736-42.487466 1.7664-6.126933-0.725333-8.3712-3.976533-12.561067-8.695467-11.195733-49.774933-49.186133-61.8752-51.857067-50.884267-11.2384-47.624533 53.0944-56.0896 85.751467l-0.0768 73.634133z m674.039467-4.206933v-82.1504c0-1.28-4.002133-20.1728-5.009067-24.482133-16.6656-71.662933-54.4-57.352533-96.187733-13.5168l-20.992 29.559466c13.533867 8.968533 28.663467 15.982933 41.949867 25.472 24.610133 17.570133 45.021867 40.0128 67.592533 58.794667 4.266667 3.549867 5.4016 8.046933 12.637867 6.314667z m-498.414933 59.8016c-36.0192 6.289067-47.146667 40.6784-24.0384 68.7616 23.296 28.3136 98.1248 36.804267 101.367466-8.337067 2.5856-35.985067-44.416-66.176-77.320533-60.424533z m299.127466-0.008533c-31.300267 5.4016-66.833067 39.3728-48.674133 72.32 18.3808 33.348267 78.890667 20.608 98.295467-5.845334 29.943467-40.823467-5.290667-74.120533-49.621334-66.474666zM257.723733 535.082667c-2.013867 15.018667 1.570133 25.489067 12.4416 35.8656 39.057067 37.290667 110.6944 29.44 141.1328-14.976 10.427733-15.214933 8.994133-35.140267-12.091733-28.936534-5.1456 1.5104-13.4912 14.139733-19.498667 18.414934-24.132267 17.160533-51.797333 19.2512-78.651733 7.253333-16.861867-7.534933-25.608533-25.301333-43.332267-17.621333z m505.454934-0.042667c-15.095467-4.181333-17.186133 5.469867-25.3696 10.4192-30.634667 18.525867-59.3152 19.8656-91.383467 3.114667-14.557867-7.6032-31.3088-39.825067-43.502933-11.426134 11.392 40.558933 60.168533 60.791467 99.3536 57.028267 26.683733-2.56 71.236267-28.125867 60.9024-59.136z" fill="#F8C27E" p-id="2695"></path><path d="M173.397333 311.739733l0.0768-73.634133c8.465067-32.648533 5.213867-96.981333 56.0896-85.751467 12.1088 2.670933 53.188267 40.661333 61.8752 51.857067 3.2512 4.189867 5.742933 6.434133 3.976534 12.561067-1.0496 3.643733-53.2736 34.833067-62.8736 42.487466-8.9856 7.159467-24.055467 19.601067-31.9488 27.0336-8.174933 7.7056-12.475733 25.770667-27.204267 25.4464z" fill="#F9C7BA" p-id="2696"></path><path d="M847.4368 307.5328c-7.236267 1.732267-8.3712-2.773333-12.637867-6.314667-22.570667-18.781867-42.9824-41.224533-67.592533-58.794666-13.2864-9.489067-28.424533-16.503467-41.949867-25.472l20.992-29.559467c41.787733-43.844267 79.522133-58.154667 96.187734 13.5168 1.006933 4.309333 5.009067 23.202133 5.009066 24.482133v82.1504z" fill="#F9C6B7" p-id="2697"></path><path d="M648.149333 367.325867c44.330667-7.6544 79.5648 25.6512 49.621334 66.474666-19.4048 26.453333-79.914667 39.1936-98.295467 5.845334-18.158933-32.9472 17.373867-66.9184 48.674133-72.32z" fill="#F9F0DF" p-id="2698"></path><path d="M349.021867 367.3344c32.904533-5.751467 79.906133 24.439467 77.320533 60.424533-3.242667 45.141333-78.071467 36.650667-101.367467 8.337067-23.099733-28.0832-11.972267-62.472533 24.0384-68.7616z" fill="#F8F0DD" p-id="2699"></path><path d="M257.723733 535.082667c17.723733-7.688533 26.461867 10.0864 43.332267 17.621333 26.8544 11.989333 54.519467 9.898667 78.651733-7.253333 6.007467-4.2752 14.3616-16.896 19.498667-18.414934 21.077333-6.203733 22.519467 13.7216 12.091733 28.936534-30.429867 44.424533-102.0672 52.266667-141.1328 14.976-10.871467-10.376533-14.455467-20.846933-12.4416-35.8656z" fill="#503027" p-id="2700"></path><path d="M763.178667 535.04c10.333867 31.010133-34.218667 56.576-60.9024 59.136-39.185067 3.7632-87.9616-16.469333-99.3536-57.028267 12.194133-28.3904 28.945067 3.822933 43.502933 11.426134 32.068267 16.7424 60.757333 15.4112 91.383467-3.114667 8.183467-4.949333 10.274133-14.600533 25.3696-10.4192z" fill="#533229" p-id="2701"></path><path d="M704.2048 627.712c13.218133-1.3824 7.645867 2.542933 3.4304 9.7536-30.404267 51.9936-2.568533 120.448 51.2768 144.0768 49.186133 21.5808 87.765333 9.2928 129.792-20.096 1.271467-0.887467 0.443733-5.316267 1.732267-6.263467 15.453867-11.451733 29.678933-14.165333 39.236266-34.705066 13.184-28.330667 3.84-31.650133-4.360533-54.775467-4.616533-13.0304-7.492267-26.043733-11.323733-39.227733-2.653867-9.1392-15.377067-22.946133-3.3536-32.452267 27.221333 16.580267 43.588267 38.485333 42.129066 71.620267-3.3024 75.076267-75.8016 152.388267-137.5744 188.919466-186.7264 110.421333-510.677333 105.0112-671.2832-49.8944 3.524267-7.330133 16.247467-4.113067 23.185067-4.1984 26.094933-0.3072 71.6544-1.7664 94.839467-10.478933 36.983467-13.9008 68.206933-50.363733 74.965333-89.335467 4.462933-25.736533-0.981333-45.883733-16.042667-66.6112l8.413867-2.0992c6.2208-0.520533 13.1584 1.006933 19.1744 0.068267 5.435733-0.853333 5.742933-4.189867 6.101333-4.2752 7.492267-1.749333 14.122667-1.928533 22.263467-5.137067 39.261867-15.4624 65.800533-54.033067 110.267733-58.231466 62.677333-5.922133 77.986133 7.867733 124.629334 40.0128 27.52 18.9696 58.453333 28.962133 92.501333 23.3472z m-135.697067-24.388267c-6.724267-6.664533-34.193067-15.4112-44.245333-16.8448-40.302933-5.7344-106.094933 21.486933-64.571733 64.571734 11.716267 12.151467 44.0832 25.2928 60.475733 22.229333 20.872533-3.8912 56.1408-24.379733 57.847467-47.752533 0.375467-5.1456-6.0928-18.816-9.514667-22.203734z m30.3872 66.500267c3.8912 33.979733-24.081067 52.8896-54.9632 40.209067-11.204267-4.599467-17.1264-15.223467-31.4112-15.223467-12.424533 0-22.186667 13.789867-34.397866 16.4608-11.9808 2.628267-33.024 2.005333-41.472-7.7056-9.864533-11.3408-1.322667-29.44-16.7936-37.5296-2.0224 4.078933-10.1888 2.0224-10.683734 6.2464-1.553067 13.2608-1.032533 28.398933 6.562134 39.560533 17.160533 25.224533 46.8736 28.253867 73.762133 19.2256 7.005867-2.3552 16.187733-10.811733 23.0144-10.811733 7.125333 0 31.3856 15.36 46.4384 16.896 37.495467 3.822933 70.8864-30.634667 56.541867-67.106133l-16.605867-0.2304z" fill="#FAF0DE" p-id="2702"></path><path d="M139.690667 585.582933c5.418667-0.503467 11.3152 0.0768 16.853333 0l-45.755733 40.6016-13.2096 58.4192c8.379733 35.3536 35.456 87.3472 74.530133 93.952 44.6208 7.543467 95.607467-1.646933 123.5456-39.125333 20.983467-28.151467 20.983467-71.048533 10.3168-103.176533-4.4032-13.2608 1.536-7.918933 10.658133-8.5504 3.899733 0.571733 8.516267-0.349867 12.637867 0v4.215466l-8.413867 2.0992c15.0528 20.727467 20.497067 40.874667 16.042667 66.6112-6.7584 38.9632-37.981867 75.434667-74.965333 89.335467-23.185067 8.712533-68.736 10.171733-94.839467 10.478933-6.9376 0.085333-19.652267-3.131733-23.185067 4.1984-42.606933-41.096533-60.706133-76.305067-71.620266-134.8096l-0.4608-10.0096-3.754667-2.628266c-0.196267-1.373867 0.162133-2.824533 0-4.215467 7.645867-9.796267 10.368-24.849067 17.4336-35.2256 10.4704-15.377067 35.754667-30.472533 54.186667-32.1792z" fill="#F9EAD6" p-id="2703"></path><path d="M72.285867 669.832533c-0.136533-0.7168-3.0208-4.096-4.215467-12.637866l3.754667 2.628266 0.4608 10.0096z" fill="#F8C27E" p-id="2704"></path><path d="M910.634667 594.005333c-12.014933 9.514667 0.699733 23.313067 3.3536 32.452267 3.831467 13.184 6.7072 26.197333 11.323733 39.227733 8.192 23.133867 17.544533 26.4448 4.360533 54.775467-9.557333 20.539733-23.7824 23.2448-39.236266 34.705067-1.28 0.955733-0.452267 5.376-1.732267 6.263466-42.026667 29.3888-80.605867 41.6768-129.792 20.096-53.845333-23.6288-81.672533-92.0832-51.2768-144.0768 4.215467-7.210667 9.787733-11.127467-3.4304-9.7536 5.7344-0.9472 29.696-9.5488 37.9136-12.637866l-11.605333 36.8384c-10.2656 26.205867-2.0736 58.606933 13.815466 81.006933 12.919467 18.210133 49.339733 31.650133 71.441067 29.499733 4.164267-0.4096 8.2688-3.165867 12.817067-4.010666 5.0688-0.930133 10.8032 0.7936 16.1536-0.6912 2.065067-0.571733 33.9712-20.369067 36.352-22.6304 1.979733-1.885867 13.550933-16.750933 14.754133-18.944 5.5808-10.1376 7.424-24.507733 6.519467-35.968-1.493333-18.961067-9.6512-44.603733-19.157334-60.859734-7.918933-13.5424-33.826133-31.104-50.5088-29.525333l6.306134-8.4224c19.268267-1.6128 49.5104-1.826133 66.363733 7.543467 3.259733 1.8176 4.471467 4.616533 5.256533 5.0944z" fill="#FAE2CB" p-id="2705"></path><path d="M839.0144 581.367467l-6.306133 8.4224c16.682667-1.578667 42.589867 15.982933 50.5088 29.525333 9.506133 16.256 17.664 41.890133 19.157333 60.859733 0.904533 11.4688-0.9472 25.838933-6.519467 35.968-1.2032 2.193067-12.782933 17.066667-14.754133 18.944-2.3808 2.261333-34.286933 22.058667-36.352 22.6304-5.358933 1.4848-11.0848-0.238933-16.1536 0.6912-4.548267 0.836267-8.6528 3.601067-12.817067 4.010667-22.101333 2.1504-58.5216-11.2896-71.441066-29.499733-15.8976-22.4-24.0896-54.801067-13.815467-81.006934l11.605333-36.8384c33.399467-12.552533 58.146133-30.455467 96.896-33.706666z m-39.330133 34.389333c-33.792 7.424-52.309333 42.427733-43.025067 75.3408 14.464 51.234133 93.9008 57.924267 115.1744 9.454933 20.241067-46.114133-23.287467-95.5392-72.157867-84.795733z" fill="#F9D2B7" p-id="2706"></path><path d="M156.535467 585.582933c6.263467-0.085333 12.6464-0.221867 18.935466 0 4.846933 0.170667 11.6224-2.756267 10.5472 4.1984-7.68 0.7168-14.523733 6.536533-20.727466 10.871467-21.4784 15.035733-37.802667 23.893333-45.909334 50.961067-5.341867 17.834667-1.245867 38.997333 5.504 56.183466 9.890133 25.198933 32.477867 49.237333 59.844267 53.896534 33.570133 5.717333 78.6176-6.519467 96.0512-37.137067 12.4416-21.845333 9.1648-41.6512 13.1328-65.2544-1.860267-17.152-6.510933-23.7824-17.322667-35.8144-5.640533-6.280533-11.9296-9.309867 2.107734-8.430933 10.513067 4.036267 29.047467 11.332267 37.9136 12.637866-9.122133 0.622933-15.061333-4.718933-10.658134 8.5504 10.666667 32.128 10.666667 75.025067-10.3168 103.176534-27.938133 37.4784-78.933333 46.6688-123.5456 39.125333-39.074133-6.6048-66.1504-58.5984-74.530133-93.952l13.2096-58.4192 45.755733-40.6016z" fill="#FADEC7" p-id="2707"></path><path d="M278.7072 615.0656c-14.037333-0.878933-7.7568 2.1504-2.107733 8.430933 10.811733 12.023467 15.453867 18.653867 17.322666 35.8144-3.968 23.6032-0.6912 43.409067-13.1328 65.2544-17.4336 30.6176-62.481067 42.8544-96.0512 37.137067-27.374933-4.667733-49.954133-28.706133-59.844266-53.896533-6.749867-17.194667-10.845867-38.357333-5.504-56.183467 8.1152-27.067733 24.439467-35.933867 45.909333-50.961067 6.203733-4.343467 13.047467-10.1632 20.727467-10.871466 1.066667-6.954667-5.7088-4.027733-10.5472-4.1984-6.289067-0.221867-12.672-0.085333-18.935467 0-5.5296 0.0768-11.434667-0.503467-16.853333 0l40.200533-4.394667c35.925333 2.798933 67.089067 21.7088 98.816 33.885867z m-77.047467-11.7248c-6.741333 0.904533-19.575467 4.701867-25.591466 8.081067-3.626667 2.039467-22.647467 17.322667-25.8048 20.539733-1.442133 1.476267-13.917867 18.286933-14.2592 19.438933-5.102933 17.348267 0 42.1376 8.567466 57.796267 31.402667 57.386667 109.8752 46.216533 129.1776-16.9472 3.643733-11.938133 4.2752-36.676267-1.237333-47.803733-4.189867-8.456533-41.617067-39.108267-51.336533-41.3184-7.04-1.604267-12.612267-0.7168-19.515734 0.213333z" fill="#F9D5BB" p-id="2708"></path><path d="M354.542933 627.712c-0.366933 0.085333-0.6656 3.4304-6.101333 4.2752-6.016 0.938667-12.9536-0.5888-19.1744-0.068267v-4.215466c8.2944 0.699733 16.938667-0.469333 25.275733 0z" fill="#FADEC7" p-id="2709"></path><path d="M568.507733 603.323733c3.421867 3.387733 9.890133 17.058133 9.514667 22.203734-1.706667 23.3728-36.974933 43.861333-57.847467 47.752533-16.392533 3.054933-48.759467-10.077867-60.475733-22.229333-41.531733-43.0848 24.2688-70.306133 64.571733-64.571734 10.052267 1.4336 37.512533 10.180267 44.245334 16.8448z" fill="#513029" p-id="2710"></path><path d="M598.894933 669.824l16.605867 0.2304c14.344533 36.471467-19.0464 70.929067-56.541867 67.106133-15.0528-1.536-39.313067-16.896-46.4384-16.896-6.826667 0-16.008533 8.456533-23.0144 10.811734-26.897067 9.028267-56.6016 5.998933-73.762133-19.2256-7.594667-11.1616-8.1152-26.299733-6.562133-39.560534 0.494933-4.232533 8.669867-2.167467 10.683733-6.2464 15.470933 8.0896 6.929067 26.1888 16.7936 37.5296 8.448 9.710933 29.4912 10.333867 41.472 7.7056 12.202667-2.679467 21.973333-16.452267 34.397867-16.4608 14.2848 0 20.206933 10.624 31.4112 15.223467 30.882133 12.680533 58.862933-6.229333 54.9632-40.209067z" fill="#523028" p-id="2711"></path><path d="M799.684267 615.7568c48.8704-10.743467 92.398933 38.6816 72.157866 84.795733-21.2736 48.469333-100.718933 41.7792-115.1744-9.454933-9.2928-32.913067 9.233067-67.9168 43.025067-75.3408z" fill="#F9C1A3" p-id="2712"></path><path d="M201.659733 603.3408c6.903467-0.930133 12.475733-1.8176 19.515734-0.213333 9.719467 2.218667 47.146667 32.8704 51.336533 41.3184 5.512533 11.127467 4.8896 35.8656 1.237333 47.803733-19.3024 63.163733-97.774933 74.333867-129.1776 16.9472-8.567467-15.6672-13.6704-40.456533-8.567466-57.796267 0.341333-1.160533 12.817067-17.9712 14.2592-19.438933 3.157333-3.217067 22.1696-18.491733 25.8048-20.539733 6.016-3.3792 18.850133-7.176533 25.591466-8.081067z m-4.420266 25.0624c-40.2176 9.0368-50.653867 61.533867-15.3088 85.5552 16.768 11.392 41.429333 6.664533 54.801066-8.157867 3.729067-4.130133 16.810667-29.354667 16.776534-33.8176-0.034133-3.6864-5.4528-17.8688-7.586134-22.007466-8.2432-15.9744-31.2576-25.480533-48.682666-21.563734z" fill="#F9C9AC" p-id="2713"></path><path d="M197.239467 628.4032c17.425067-3.9168 40.439467 5.589333 48.682666 21.563733 2.133333 4.138667 7.552 18.321067 7.586134 22.007467 0.042667 4.462933-13.047467 29.687467-16.776534 33.8176-13.371733 14.8224-38.0416 19.549867-54.801066 8.157867-35.3536-24.0128-24.917333-76.5184 15.3088-85.5552z" fill="#F9BA9C" p-id="2714"></path></svg>