<?xml version="1.0" standalone="no"?><!DOCTYPE svg PUBLIC "-//W3C//DTD SVG 1.1//EN" "http://www.w3.org/Graphics/SVG/1.1/DTD/svg11.dtd"><svg t="1768807370895" class="icon" viewBox="0 0 1024 1024" version="1.1" xmlns="http://www.w3.org/2000/svg" p-id="2027" xmlns:xlink="http://www.w3.org/1999/xlink" width="96" height="96"><path d="M824.951467 919.7568l-13.021867-45.2096c-2.116267-2.2272-50.816 11.392-59.818667 12.8-6.0416 0.9472-17.083733 2.935467-20.957866 3.3024-4.232533 0.401067-8.669867-0.213333-12.936534 0-22.289067 1.092267-48.8192 0.9728-71.159466 0-5.333333-0.2304-10.9056 0.469333-16.170667 0-0.7168-0.068267-6.510933-2.474667-12.936533-3.234133-3.1232-0.366933-6.613333 0.418133-9.7024 0-0.7168-0.093867-7.108267-2.4064-12.936534-3.234134-2.065067-0.290133-4.4032 0.298667-6.468266 0-0.554667-0.0768-2.8928-2.346667-9.7024-3.234133-2.048-0.264533-4.343467 0.1024-6.468267 0l-2.013867-2.884267c-2.500267-0.9216-5.230933-0.128-7.688533-0.349866-35.106133-3.2256-109.9008-34.304-142.318933-51.754667-48.4096-26.0608-95.112533-65.783467-129.416534-108.3136l-66.269866-40.465067-9.685334 29.124267c-16.119467 13.755733-36.6848 9.378133-56.618666 9.685333-26.9056 0.418133-53.956267-0.315733-80.861867 0 8.576 12.791467 23.278933 21.7344 35.7888 30.6432 2.5088 1.783467 5.640533 1.262933 6.263467 1.6896 52.573867 36.6592 106.0096 68.0448 164.898133 95.470934 10.999467 5.12 69.162667 26.453333 70.9888 32.554666l-9.480533 46.626134c-4.352 0.315733-10.555733 8.465067-15.906134-1.8688l6.212267-36.9408c-18.218667-4.061867-37.751467-13.0048-55.048533-20.9664-73.250133-33.732267-226.577067-114.389333-265.796267-183.790934-24.635733-43.588267-21.930667-102.2976 19.712-133.563733 3.746133-32.315733-3.950933-71.850667 0.324267-103.176533 1.1264-8.234667 8.183467-17.041067 16.008533-19.566934l150.024533-0.9216c23.714133 8.2432 16.725333 27.1872 18.389334 46.301867 0.341333 3.950933 3.037867 7.671467 3.310933 12.859733 2.909867 56.200533-2.7136 114.781867 0.1792 171.246934L265.386667 680.3968c1.6384-1.877333-10.564267-26.103467-12.2624-31.394133-27.7248-86.382933 0.3072-167.3728 45.115733-241.408 10.948267-18.090667 36.573867-46.728533 43.2896-63.445334 5.6576-14.08 7.483733-36.701867 11.972267-52.718933 13.994667-49.954133 52.130133-167.492267 101.777066-189.320533 9.924267-4.369067 24.123733-5.256533 34.850134-3.857067 26.2144 3.4304 72.106667 51.771733 89.0624 72.661333 5.777067 7.1168 22.382933 35.1744 27.8784 36.8128 72.584533 6.690133 144.6656 21.4784 210.2784 55.074134 25.710933-10.897067 51.652267-22.792533 78.6688-30.455467 21.0176-5.956267 54.3744-14.199467 75.477333-10.606933 31.368533 5.341867 47.368533 36.650667 50.679467 65.757866 8.661333 76.066133-15.035733 161.297067-38.869334 232.942934 18.0736 111.880533 6.784 231.790933-85.521066 308.8128-20.4032 17.024-44.663467 26.862933-68.181334 38.7072l-1.117866 1.604266c4.002133 9.1648 21.188267 49.501867 7.697066 53.341867-8.106667 2.304-10.658133-3.080533-11.2384-3.1488zM265.3952 541.329067c-7.594667 48.170667-3.080533 76.416 16.170667 119.671466 74.461867 167.338667 339.012267 239.351467 504.567466 197.2992 4.642133-1.1776 7.458133-2.594133 9.7024-3.234133 21.896533-6.212267 31.223467-9.122133 51.754667-19.4048 2.1504-1.0752 4.369067-2.0736 6.468267-3.234133 49.783467-27.5712 71.108267-54.4512 93.7984-106.734934 28.6208-65.962667 26.948267-138.120533 16.042666-208.477866 22.357333-70.161067 45.166933-148.983467 39.082667-223.453867-1.7152-21.034667-11.229867-48.418133-34.7392-52.5824-15.616-2.7648-46.9504 5.4016-63.266133 9.838933-30.370133 8.260267-59.127467 21.4528-87.6288 34.432-33.134933-17.245867-68.4288-31.658667-104.772267-40.900266-39.569067-10.0608-79.940267-14.711467-120.2176-17.245867-17.5104-31.761067-44.859733-66.798933-72.994133-90.3424-17.442133-14.600533-40.004267-29.0816-61.585067-12.945067-33.553067 25.088-65.553067 105.105067-77.6448 145.527467-7.620267 25.480533-11.554133 62.250667-21.597867 85.137067-8.004267 18.235733-32.290133 45.943467-44.125866 65.8432-22.8096 38.3488-41.975467 76.2112-49.006934 120.8064z m-67.925333-100.266667c-0.384-0.238933 0.0512-2.696533-4.642134-3.310933-39.9872 2.7136-83.7888-3.328-123.255466-0.068267-5.2736 0.4352-9.2672 2.133333-14.037334 3.874133-1.3824 1.476267 0.110933 4.625067-0.375466 5.981867-0.093867 0.264533-2.824533 0.477867-3.285334 4.667733-3.1488 28.885333 2.414933 62.8992 0.0512 92.373334 2.0992 0.290133 4.539733-0.366933 6.459734 0 13.354667 2.542933 20.309333 6.536533 29.1072 16.170666 20.155733 22.0672 26.257067 56.516267 18.722133 85.034667-4.3264 16.392533-12.117333 28.8512-25.275733 39.406933l-22.5536 11.400534c12.893867 0.085333 25.915733-0.085333 38.8096 0 30.2336 0.2304 65.962667 2.3552 95.5136 0.093866 3.805867-0.290133 7.0912 0.520533 9.736533-3.2 2.696533-41.796267 1.501867-84.292267 1.4848-126.276266-0.017067-39.338667-0.0512-78.762667 0.085333-118.135467 0.034133-5.486933-3.2-5.922133-6.5536-8.0128zM44.245333 564.3776c-2.56 0.7424-11.2896 9.813333-13.2608 12.612267-18.705067 26.5728-15.069867 73.463467 4.599467 98.7392 41.710933 11.383467 59.665067-33.3568 55.099733-68.036267-2.7904-21.205333-21.9648-50.449067-46.4384-43.306667z" fill="#4B2A20" p-id="2028"></path><path d="M562.961067 877.713067l2.013866 2.875733c2.525867 0.853333 5.1456 0.2304 7.688534 0.3584 2.1248 0.1024 4.420267-0.264533 6.468266 0l2.0224 2.875733 7.688534 0.3584c2.065067 0.298667 4.4032-0.290133 6.468266 0l1.954134 2.884267 10.9824 0.349867c3.089067 0.418133 6.587733-0.366933 9.7024 0l1.954133 2.884266 10.9824 0.349867c5.2736 0.469333 10.845867-0.2304 16.170667 0 2.696533 5.614933 12.475733 3.1744 17.800533 3.2256 8.618667 0.0768 17.245867 0.042667 25.864533 0.008533 8.1408-0.034133 21.435733 2.645333 27.4944-3.234133 4.266667-0.213333 8.704 0.401067 12.936534 0l2.816 1.954133 3.652266 27.153067c-0.571733-0.119467-6.545067 3.336533-11.170133 3.370667-108.381867 0.9216-216.866133-0.768-325.213867-0.136534-1.792-33.467733 12.5696-64.861867 19.4048-97.032533 32.4096 17.450667 107.204267 48.529067 142.318934 51.754667z" fill="#F8F0DC" p-id="2029"></path><path d="M731.153067 890.6496c3.874133-0.366933 14.916267-2.3552 20.957866-3.3024 9.002667-1.408 57.7024-15.0272 59.818667-12.8l13.021867 45.2096c-12.484267-1.544533-20.573867 2.8928-30.583467 3.3792-19.780267 0.9472-38.920533 0.2816-56.746667-3.3792l-3.652266-27.153067-2.816-1.954133z" fill="#F6C17D" p-id="2030"></path><path d="M265.3952 541.329067c7.031467-44.586667 26.1888-82.4576 49.006933-120.8064 11.844267-19.899733 36.1216-47.598933 44.125867-65.8432 10.043733-22.877867 13.9776-59.656533 21.597867-85.137067 12.091733-40.4224 44.091733-120.439467 77.6448-145.527467 21.5808-16.136533 44.142933-1.655467 61.585066 12.945067 28.1344 23.543467 55.492267 58.5728 72.994134 90.3424 40.285867 2.5344 80.657067 7.185067 120.2176 17.245867 36.343467 9.2416 71.645867 23.6544 104.772266 40.900266 28.501333-12.9792 57.258667-26.171733 87.6288-34.432 16.324267-4.437333 47.658667-12.612267 63.266134-9.838933 23.509333 4.1728 33.015467 31.547733 34.7392 52.5824 6.084267 74.4704-16.725333 153.301333-39.082667 223.453867 10.9056 70.357333 12.578133 142.523733-16.042667 208.477866 0.452267-29.636267-8.157867-50.747733-32.341333-67.925333-14.976-10.641067-22.254933-9.9584-38.8096-12.936533-4.5824-0.827733-7.893333-2.730667-16.170667-3.234134-2.141867-0.128-4.317867 0.068267-6.468266 0 0.418133-5.7344 12.552533-0.085333 8.0896-6.468266-6.690133-9.565867-30.813867-22.033067-42.129067-21.6576-3.584 0.119467-7.739733 5.597867-12.834133 5.546666-4.718933-0.0512-11.6224-4.957867-16.7936-5.930666-14.267733-2.679467-40.388267 12.245333-64.085334 9.105066-6.792533-0.896-15.854933-11.52-21.026133-3.234133-16.913067-18.551467-30.122667-39.586133-52.736-52.3776-31.138133-17.6128-62.6688-20.104533-96.093867-7.5008-12.663467 4.770133-29.073067 15.709867-42.001066 17.834667-8.661333 1.425067-19.976533-0.981333-29.1072 0v-3.234134c4.3008 0.0512 8.644267-0.0256 12.936533 0-5.717333-9.454933-8.3712-22.8096-18.2016-28.689066-4.488533-2.688-9.8816-2.952533-14.011733-5.4016-8.618667-5.12-31.061333-22.178133-34.2784-30.549334-0.930133-2.414933-1.152-4.027733-1.442134-6.510933 1.0752 0.059733 2.167467-0.1024 3.234134 0l2.0224 2.833067c6.203733 2.0224 7.2448 0.5888 10.914133-2.833067 15.317333-14.293333 44.834133-13.3376 61.371733-1.536 12.6464 9.028267 16.699733 22.0928 22.562134 35.652267l11.246933 1.220266c3.345067-0.9728 8.413867-10.658133 8.354133-14.2592-0.0256-1.698133-3.131733-16.546133-3.848533-18.875733-12.663467-41.096533-69.888-63.112533-104.593067-34.602667-10.683733 8.7808-12.808533 19.063467-11.264 32.401067-15.1296-0.8704-29.329067 3.0464-46.890666 3.242667-5.3248 0.059733-15.095467-2.397867-17.800534 3.2256-3.848533-1.339733-8.849067-2.4064-12.936533-3.234134-17.211733-3.490133-31.7696-4.7616-48.631467 1.501867-16.341333 6.075733-27.451733 21.504-38.698666 34.0736z m158.498133-252.279467c29.329067-17.5872 57.0112-33.399467 89.608534-44.612267 7.4752-2.577067 18.039467-1.5616 23.569066-8.746666-11.9296-21.111467-34.184533-74.965333-64.836266-64.853334-17.322667 5.7088-35.217067 55.2448-40.3456 72.840534-2.176 7.4752-11.272533 41.437867-7.9872 45.371733z m520.7296 135.842133c1.757867-20.804267 12.526933-39.620267 16.110934-59.904 2.082133-11.776 4.5824-37.0432 3.438933-48.580266-4.386133-44.381867-48.529067-23.261867-73.540267-8.576-36.573867 21.469867-15.965867 22.0672 2.304 44.2368 17.066667 20.701867 28.450133 44.996267 42.402134 67.566933 2.466133 3.985067 4.1216 6.272 9.284266 5.265067z m-415.104-60.919466c-15.496533 3.498667-26.709333 20.539733-24.251733 36.027733 4.5824 28.8512 47.2064 57.412267 73.7792 39.355733 36.5312-24.814933-11.229867-84.0192-49.527467-75.383466z m226.517334 64.776533c-18.884267 3.2-42.624 24.661333-36.369067 44.8256 13.201067 42.581333 92.475733 29.696 92.4928-11.4944 0.008533-29.294933-31.658667-37.4784-56.1152-33.339733z m62.446933 174.037333c8.251733-10.5472 6.203733-20.497067 1.732267-32.4608-14.728533-39.381333-71.2704-51.012267-103.68-25.821866-10.308267 8.0128-16.785067 18.8416-14.370134 32.290133l10.7264 3.063467c21.9136-21.614933 56.1408-20.8384 78.216534 0.1792 6.843733 6.510933 7.3472 16.477867 14.4384 22.7584 0.290133 0.256-0.1024 2.491733 1.7664 3.003733l9.514666 0.1024c1.851733-0.512 1.271467-2.602667 1.664-3.0976z" fill="#F9C47E" p-id="2031"></path><path d="M491.810133 622.190933c0.887467 3.626667-1.194667 7.876267 1.536 13.0048 3.114667 5.853867 19.541333 20.616533 20.701867 24.593067 2.935467 10.112-0.878933 29.482667 0.477867 41.565867 7.688533 68.462933 91.4176 88.994133 134.016 33.902933 6.843733-8.849067 17.186133-35.1488 23.296-38.152533 4.471467-2.2016 12.100267-3.746133 17.28-3.754667-2.602667 2.696533-15.650133 17.058133-15.957334 18.2272-1.169067 4.471467 3.831467 11.178667 1.169067 17.425067 18.176 6.4256 15.906133 12.4928 23.005867 25.668266 9.582933 17.792 23.808 41.685333 40.388266 53.410134 5.717333 4.0448 13.4912 5.8368 19.242667 9.864533 3.438933 2.414933 23.552 19.0976 24.4224 20.864 2.9696 6.058667 0.136533 13.7984 4.770133 19.490133-165.5552 42.052267-430.114133-29.960533-504.567466-197.2992l16.085333 4.9408c16.896 14.429867 31.325867 38.007467 53.9648 43.067734 6.4 1.425067 18.5856 1.134933 25.506133 0.657066 25.984-1.800533 72.465067-15.7184 88.866134-37.2736 3.4048-4.471467 5.6064-12.680533 7.022933-14.0288 3.208533-3.080533 7.304533-0.6144 10.8032-10.197333 4.232533-11.5968 3.754667-19.1232 1.348267-30.967467 0.418133-4.727467 2.730667-3.874133 3.4048-4.701866-2.423467 4.992 3.072 9.053867 3.234133 9.7024z" fill="#F9F0DC" p-id="2032"></path><path d="M352.725333 505.7536c1.698133 7.739733-3.319467 6.766933-8.593066 9.130667-4.590933 2.065067-10.564267 3.3792-14.020267 5.444266-6.673067 3.976533-41.1648 48.1792-42.1376 54.894934-1.937067 13.2864-0.512 44.4928 4.974933 56.618666 0.768 1.6896 11.042133 18.0992 11.8528 18.8672 1.8432 1.749333 8.4224 2.594133 12.296534 5.512534 9.275733 6.997333 16.443733 18.423467 28.014933 23.722666 9.070933-1.1776 17.186133 3.217067 25.275733 3.831467 23.5008 1.783467 47.095467-1.271467 66.312534-14.830933 2.5344-1.783467 17.3568-13.3888 17.9968-14.344534 1.7408-2.594133 1.442133-6.741333 3.3024-9.634133 13.627733-21.1712 30.8992-40.7808 27.349333-68.061867 9.130667-0.981333 20.4544 1.425067 29.1072 0 0.989867 4.027733-8.149333 18.781867-9.7024 19.4048-2.474667 0.989867-8.157867-1.646933-11.511467 3.0976-2.176 3.063467-1.152 6.545067-1.425066 9.847467-1.962667 0.324267-2.321067 2.107733-3.234134 3.234133-0.674133 0.827733-2.986667-0.0256-3.4048 4.701867 2.397867 11.835733 2.875733 19.370667-1.348266 30.967467-3.498667 9.582933-7.586133 7.1168-10.8032 10.197333-1.416533 1.3568-3.618133 9.557333-7.022934 14.0288-16.4096 21.5552-62.882133 35.473067-88.866133 37.2736-6.920533 0.477867-19.106133 0.776533-25.506133-0.657067-22.638933-5.060267-37.0688-28.637867-53.9648-43.067733l-16.085334-4.9408c-19.2512-43.255467-23.765333-71.509333-16.170666-119.671467 11.246933-12.5696 22.357333-27.997867 38.698666-34.0736 16.853333-6.272 31.419733-4.992 48.631467-1.501866z" fill="#FAE6CE" p-id="2033"></path><path d="M947.857067 725.691733c-22.690133 52.292267-44.014933 79.163733-93.7984 106.734934-4.0192-3.464533-17.0496-8.644267-21.5808-9.0624-2.961067-0.273067-5.7856 2.346667-8.5248 1.860266-49.7408-8.695467-86.468267-19.157333-110.455467-67.336533-9.378133-18.833067-20.292267-48.0768-14.6944-67.7888v-3.234133c4.974933-4.7104 7.688533-10.0608 9.7024-16.170667h6.468267c-4.736 67.114667 25.4208 132.036267 98.781866 139.136 5.614933 0.546133 9.472-2.090667 12.817067-2.030933 3.566933 0.059733 7.671467 2.466133 12.9792 2.218666 28.731733-1.314133 69.2736-34.4832 77.738667-61.533866 2.423467-7.739733 0.810667-13.738667 1.5104-21.12 1.322667-14.045867 1.8176-27.195733-0.1024-42.052267-1.041067-8.098133-11.6224-20.676267-3.182934-27.5456 24.192 17.1776 32.7936 38.289067 32.341334 67.925333z" fill="#F9E9D3" p-id="2034"></path><path d="M698.811733 690.116267c-5.6064 19.712 5.316267 48.955733 14.6944 67.7888 23.978667 48.170667 60.714667 58.632533 110.455467 67.336533 2.7392 0.477867 5.563733-2.133333 8.5248-1.860267 4.539733 0.4096 17.570133 5.597867 21.5808 9.0624-2.0992 1.160533-4.317867 2.158933-6.468267 3.234134l-24.251733-5.1968c-8.942933 2.5344-18.807467 1.3312-26.0352 8.277333l-1.467733 16.324267c-2.244267 0.64-5.060267 2.056533-9.7024 3.234133-4.6336-5.6832-1.800533-13.431467-4.770134-19.490133-0.861867-1.7664-20.974933-18.449067-24.4224-20.864-5.751467-4.036267-13.525333-5.819733-19.242666-9.864534-16.580267-11.733333-30.7968-35.618133-40.388267-53.410133-7.099733-13.175467-4.829867-19.242667-23.005867-25.668267 2.6624-6.254933-2.338133-12.9536-1.169066-17.425066 0.3072-1.169067 13.3632-15.530667 15.957333-18.2272 1.083733-1.1264 2.210133-2.176 3.234133-3.234134l1.6128 3.208534 4.855467-3.208534z" fill="#F8EEDA" p-id="2035"></path><path d="M847.5904 835.669333c-20.5312 10.282667-29.858133 13.192533-51.754667 19.4048l1.467734-16.324266c7.227733-6.9376 17.092267-5.742933 26.0352-8.277334l24.251733 5.1968z" fill="#F9F0DC" p-id="2036"></path><path d="M718.216533 890.6496c-6.058667 5.879467-19.3536 3.2-27.4944 3.234133-8.618667 0.034133-17.245867 0.068267-25.864533-0.008533-5.316267-0.0512-15.104 2.389333-17.800533-3.2256 22.331733 0.9728 48.861867 1.092267 71.159466 0zM630.8864 890.6496l-10.9824-0.349867-1.954133-2.884266c6.4256 0.759467 12.219733 3.1744 12.936533 3.234133zM608.247467 887.415467l-10.9824-0.349867-1.954134-2.884267c5.8368 0.827733 12.219733 3.140267 12.936534 3.234134zM572.663467 880.9472c-2.542933-0.119467-5.162667 0.494933-7.688534-0.3584l-2.013866-2.875733c2.4576 0.221867 5.179733-0.5632 7.688533 0.349866l2.013867 2.884267zM588.842667 884.181333l-7.688534-0.3584-2.0224-2.875733c6.8096 0.887467 9.147733 3.157333 9.7024 3.234133z" fill="#F0EDE2" p-id="2037"></path><path d="M705.28 618.9568c5.384533 5.905067 15.522133 20.3264 22.638933 22.638933-4.189867 11.1616-12.100267 17.194667-12.936533 29.1072h-6.468267c0.827733-2.500267 3.234133-9.719467 2.978134-10.939733-1.024-4.872533-13.371733-12.8-15.931734-6.562133-10.205867 24.891733-24.490667 26.487467-50.244266 24.098133-17.390933-1.6128-33.527467-19.549867-45.678934-22.2464-19.5584-4.334933-37.307733 3.618133-59.349333-5.341867-13.713067-5.572267-30.3616-16.785067-31.726933-32.9472-0.503467-5.9136 8.7552-16.128-3.805867-20.462933 1.553067-0.622933 10.692267-15.377067 9.7024-19.4048 12.928-2.1248 29.346133-13.064533 42.001067-17.834667 33.416533-12.603733 64.9472-10.112 96.093866 7.5008 22.621867 12.8 35.822933 33.826133 52.736 52.3776z m-110.8736-47.940267c-8.661333 3.822933-16.896 1.570133-24.900267 7.586134-18.705067 14.071467-3.2768 40.994133 11.1872 53.3504 3.618133 3.089067 15.982933 11.460267 19.9936 12.356266 22.2976 4.949333 68.693333-5.9136 62.037334-36.164266-5.435733-24.712533-41.173333-33.339733-62.728534-37.8112l-5.589333 0.682666z" fill="#F8EEDA" p-id="2038"></path><path d="M365.661867 508.987733c6.007467 2.090667 13.457067 6.6048 19.4048 9.7024-2.756267 5.768533-11.579733 2.5344-17.271467 3.754667-17.450667 3.746133-44.3648 28.8-52.130133 44.9024-8.576 17.783467-6.7584 41.719467 2.141866 59.0336 7.517867 14.6176 27.741867 29.6448 43.562667 34.065067 7.978667 2.2272 23.901867 4.5824 31.931733 3.925333 17.2288-1.425067 39.074133-17.774933 50.048-30.788267 1.8944-2.244267 12.194133-15.633067 12.484267-16.631466 2.696533-9.5232 3.541333-26.914133 1.9712-36.770134-0.9472-5.956267-5.700267-11.118933 4.8896-9.728 8.046933 2.901333 14.276267 3.140267 22.638933 3.234134v3.234133c3.541333 27.281067-13.7216 46.8992-27.349333 68.061867-1.860267 2.8928-1.5616 7.04-3.3024 9.634133-0.64 0.955733-15.470933 12.561067-17.9968 14.344533-19.217067 13.568-42.811733 16.6144-66.312533 14.830934-8.0896-0.6144-16.213333-5.009067-25.275734-3.831467-11.562667-5.2992-18.7392-16.733867-28.014933-23.722667-3.874133-2.9184-10.4448-3.7632-12.296533-5.512533-0.810667-0.768-11.0848-17.1776-11.8528-18.8672-5.4784-12.125867-6.912-43.332267-4.974934-56.618667 0.981333-6.7072 35.473067-50.909867 42.1376-54.894933 3.456-2.065067 9.429333-3.3792 14.020267-5.444267 5.2736-2.372267 10.2912-1.390933 8.593067-9.130666 4.087467 0.827733 9.096533 1.8944 12.936533 3.234133z" fill="#FAD6B9" p-id="2039"></path><path d="M750.557867 648.072533c-2.133333 9.156267-8.96 15.675733-12.219734 24.968534-5.563733 15.829333-7.2704 34.184533-3.319466 50.4064 3.950933 16.221867 18.696533 38.826667 31.854933 49.006933 19.080533 14.7712 45.6192 20.002133 69.538133 18.0736 23.0144-1.860267 48.375467-17.186133 59.0336-38.007467 2.1248-4.155733 8.4224-19.6864 8.8576-23.492266 0.4608-4.096-1.9968-7.355733-1.988266-11.409067 0-5.888 4.027733-10.333867 3.618133-16.0256-0.3584-4.9664-8.7808-34.5856-11.400533-37.469867-2.304-2.5344-5.9392-2.3552-7.424-3.797333-2.2784-2.210133-6.647467-12.100267-10.3936-15.496533 16.5632 2.978133 23.8336 2.304 38.8096 12.936533-8.439467 6.869333 2.141867 19.447467 3.182933 27.5456 1.911467 14.856533 1.425067 28.0064 0.1024 42.052267-0.699733 7.381333 0.913067 13.3888-1.5104 21.12-8.465067 27.050667-49.006933 60.219733-77.738667 61.533866-5.307733 0.247467-9.412267-2.158933-12.9792-2.218666-3.336533-0.059733-7.202133 2.577067-12.817066 2.030933-73.361067-7.0912-103.509333-72.021333-98.781867-139.136 0.836267-11.912533 8.746667-17.954133 12.936533-29.1072 4.974933 1.6128 18.235733 5.691733 22.638934 6.468267z" fill="#F9DFC6" p-id="2040"></path><path d="M944.622933 424.891733c-5.154133 0.9984-6.818133-1.288533-9.284266-5.265066-13.952-22.570667-25.335467-46.865067-42.402134-67.566934-18.269867-22.1696-38.877867-22.7584-2.304-44.2368 25.0112-14.685867 69.154133-35.797333 73.540267 8.576 1.143467 11.5456-1.365333 36.804267-3.438933 48.580267-3.584 20.283733-14.353067 39.099733-16.110934 59.904z" fill="#F7CAB8" p-id="2041"></path><path d="M423.893333 289.0496c-3.285333-3.933867 5.8112-37.896533 7.9872-45.371733 5.128533-17.595733 23.022933-67.131733 40.3456-72.840534 30.660267-10.112 52.906667 43.741867 64.836267 64.853334-5.5296 7.185067-16.093867 6.1696-23.569067 8.746666-32.597333 11.221333-60.279467 27.025067-89.608533 44.612267z" fill="#F8C8B5" p-id="2042"></path><path d="M876.706133 644.829867c3.746133 3.396267 8.123733 13.277867 10.3936 15.496533 1.4848 1.442133 5.12 1.262933 7.424 3.797333 2.628267 2.8928 11.050667 32.512 11.400534 37.469867 0.4096 5.691733-3.618133 10.1376-3.618134 16.0256 0 4.053333 2.449067 7.313067 1.988267 11.409067-0.426667 3.805867-6.724267 19.328-8.8576 23.492266-10.6496 20.821333-36.010667 36.1472-59.0336 38.007467-23.918933 1.928533-50.4576-3.293867-69.538133-18.0736-13.1584-10.1888-27.904-32.785067-31.854934-49.006933-3.950933-16.221867-2.244267-34.577067 3.319467-50.4064 3.268267-9.2928 10.094933-15.8208 12.219733-24.968534 3.7376 0.657067 8.7808-0.2048 12.936534 0 6.4768 7.799467-4.864 10.8032-8.064 16.196267-3.950933 6.673067-8.891733 38.903467-7.517867 46.276267 3.882667 20.898133 20.0704 44.552533 38.306133 55.5008 8.8064 5.282133 17.3312 4.4288 25.634134 9.915733 17.774933 1.373867 34.8928-4.898133 51.3024-12.074667 0.725333-8.2176 8.2944-8.106667 11.895466-12.3392 7.099733-8.3456 14.5664-26.299733 14.839467-37.188266 0.170667-6.570667-1.792-25.975467-4.104533-31.701334-5.777067-14.2848-21.111467-26.0096-25.258667-41.045333 8.285867 0.503467 11.588267 2.4064 16.170667 3.234133z" fill="#F9CEB1" p-id="2043"></path><path d="M756.036267 428.7488c24.456533-4.1472 56.132267 4.0448 56.1152 33.339733-0.017067 41.1904-79.291733 54.075733-92.4928 11.4944-6.254933-20.164267 17.4848-41.634133 36.369066-44.8256z" fill="#F8EEDA" p-id="2044"></path><path d="M529.518933 363.972267c38.2976-8.635733 86.058667 50.568533 49.527467 75.383466-26.581333 18.056533-69.205333-10.504533-73.7792-39.355733-2.4576-15.488 8.7552-32.529067 24.251733-36.027733z" fill="#F7EEDA" p-id="2045"></path><path d="M446.523733 502.519467c-4.266667-0.2816-8.704 0.418133-12.936533 0-1.066667-0.1024-2.158933 0.059733-3.234133 0-1.544533-13.3376 0.580267-23.620267 11.264-32.401067 34.705067-28.509867 91.9296-6.493867 104.593066 34.602667 0.7168 2.338133 3.822933 17.186133 3.848534 18.875733 0.0512 3.6096-5.009067 13.2864-8.354134 14.2592l-11.246933-1.220267c-5.8624-13.568-9.915733-26.624-22.562133-35.652266-16.5376-11.8016-46.0544-12.757333-61.371734 1.536z" fill="#522F26" p-id="2046"></path><path d="M818.4832 602.786133H805.546667c-7.0912-6.272-7.6032-16.238933-14.4384-22.7584-22.075733-21.0176-56.302933-21.7856-78.216534-0.1792l-10.7264-3.063466c-2.423467-13.448533 4.061867-24.277333 14.370134-32.290134 32.4096-25.1904 88.951467-13.550933 103.68 25.821867 4.471467 11.963733 6.519467 21.9136-1.732267 32.4608z" fill="#502F26" p-id="2047"></path><path d="M854.058667 641.595733c2.1504 0.068267 4.3264-0.128 6.468266 0 4.155733 15.035733 19.490133 26.760533 25.258667 41.045334 2.312533 5.7344 4.2752 25.1392 4.104533 31.701333-0.273067 10.888533-7.739733 28.842667-14.839466 37.188267-3.601067 4.232533-11.170133 4.113067-11.895467 12.3392-16.4096 7.185067-33.527467 13.448533-51.3024 12.074666-8.302933-5.486933-16.827733-4.6336-25.634133-9.915733-18.235733-10.948267-34.423467-34.602667-38.306134-55.5008-1.373867-7.3728 3.566933-39.6032 7.517867-46.276267 3.2-5.4016 14.5408-8.3968 8.064-16.196266 6.144 0.3072 13.312 0.418133 19.4048 0-3.1232 7.8592-13.858133 12.919467-17.7664 19.4304-7.2448 12.0832-7.278933 49.348267 0 61.405866 1.450667 2.397867 17.442133 21.486933 19.259733 22.792534 3.720533 2.670933 28.535467 11.5968 32.443734 11.665066 10.402133 0.170667 35.4048-9.540267 43.5712-16.759466 13.653333-12.0576 20.846933-40.337067 15.837866-57.642667-0.298667-1.015467-9.429333-16.085333-10.939733-18.167467-3.029333-4.181333-7.8592-7.406933-11.306667-11.332266l-12.868266-17.851734c4.258133-0.187733 8.669867-0.136533 12.936533 0z" fill="#F8C1A2" p-id="2048"></path><path d="M705.28 618.9568c5.1712-8.285867 14.2336 2.338133 21.026133 3.234133 23.697067 3.140267 49.8176-11.776 64.085334-9.105066 5.1712 0.9728 12.074667 5.879467 16.7936 5.930666 5.0944 0.0512 9.250133-5.4272 12.834133-5.546666 11.3152-0.375467 35.438933 12.0832 42.129067 21.6576 4.462933 6.382933-7.671467 0.733867-8.0896 6.468266-4.266667-0.136533-8.6784-0.187733-12.936534 0-20.2752 0.8704-38.775467 5.1456-58.222933 6.468267-6.0928 0.418133-13.2608 0.3072-19.4048 0-4.155733-0.2048-9.198933 0.657067-12.936533 0-4.4032-0.776533-17.672533-4.855467-22.638934-6.468267-7.125333-2.312533-17.262933-16.7424-22.638933-22.638933z" fill="#F7B477" p-id="2049"></path><path d="M430.353067 502.519467c0.290133 2.4832 0.512 4.087467 1.442133 6.510933 3.208533 8.379733 25.6512 25.429333 34.2784 30.549333 4.1216 2.449067 9.5232 2.7136 14.011733 5.4016 9.8304 5.888 12.475733 19.242667 18.2016 28.689067-4.292267-0.017067-8.635733 0.0512-12.936533 0-8.3712-0.093867-14.592-0.3328-22.638933-3.234133l-32.341334-19.4048c-6.946133-10.837333-10.9568-10.0864-19.4048-16.170667-9.847467-7.082667-15.3344-10.692267-25.873066-16.170667-5.956267-3.0976-13.397333-7.611733-19.4048-9.7024 2.705067-5.623467 12.475733-3.165867 17.800533-3.2256 17.5616-0.2048 31.761067-4.113067 46.890667-3.242666z" fill="#F8B075" p-id="2050"></path><path d="M818.4832 602.786133c-0.392533 0.494933 0.187733 2.594133-1.664 3.0976l-9.514667-0.1024c-1.8688-0.512-1.467733-2.747733-1.7664-3.003733h12.936534z" fill="#F7B477" p-id="2051"></path><path d="M446.523733 502.519467c-3.669333 3.4304-4.7104 4.855467-10.914133 2.833066l-2.0224-2.833066c4.232533 0.418133 8.669867-0.2816 12.936533 0z" fill="#F8B075" p-id="2052"></path><path d="M504.746667 596.317867c12.561067 4.343467 3.310933 14.549333 3.805866 20.462933 1.365333 16.1536 18.013867 27.374933 31.726934 32.9472 22.050133 8.96 39.790933 1.006933 59.349333 5.341867 12.151467 2.696533 28.288 20.6336 45.678933 22.2464 25.7536 2.389333 40.0384 0.785067 50.244267-24.098134 2.56-6.2464 14.907733 1.681067 15.931733 6.562134 0.256 1.220267-2.158933 8.439467-2.978133 10.939733-2.013867 6.1184-4.727467 11.460267-9.7024 16.170667-0.2816 0.273067-2.781867-0.597333-6.468267 3.234133-1.024 1.066667-2.1504 2.107733-3.234133 3.234133-5.179733 0-12.808533 1.553067-17.28 3.754667-6.109867 3.003733-16.452267 29.303467-23.296 38.152533-42.5984 55.0912-126.318933 34.568533-134.016-33.902933-1.3568-12.0832 2.4576-31.453867-0.477867-41.565867-1.160533-3.976533-17.578667-18.7392-20.701866-24.593066-2.730667-5.128533-0.648533-9.378133-1.536-13.0048 0.238933-4.2752-0.3584-8.6784 0-12.936534 0.273067-3.3024-0.750933-6.775467 1.425066-9.847466 3.345067-4.744533 9.0368-2.0992 11.511467-3.0976z m142.318933 100.2752c-9.105067-1.092267-20.957867-4.224-29.184-8.021334-6.784-3.131733-16.8192-12.834133-21.418667-14.165333-10.350933-2.986667-29.329067 0.8448-41.506133-0.5376-4.437333-0.503467-23.159467-7.611733-24.328533-6.391467 0.887467 21.5552 3.831467 55.748267 22.724266 69.4528 38.4768 27.895467 82.466133 1.28 93.713067-40.337066z" fill="#4F2C22" p-id="2053"></path><path d="M491.810133 622.190933c-0.162133-0.648533-5.6576-4.7104-3.234133-9.7024 0.913067-1.1264 1.271467-2.909867 3.234133-3.234133-0.3584 4.258133 0.238933 8.661333 0 12.936533z" fill="#FAD6B9" p-id="2054"></path><path d="M420.650667 825.9584c-6.8352 32.170667-21.1968 63.5648-19.4048 97.032533-17.826133 0.1024-37.512533-1.28-54.9888 0l9.480533-46.626133c-1.826133-6.101333-59.989333-27.434667-70.9888-32.554667-58.888533-27.426133-112.3328-58.811733-164.898133-95.470933 12.228267-11.690667 30.114133-16.989867 38.8096-32.341333 19.933867-0.3072 40.4992 4.0704 56.618666-9.685334l9.685334-29.124266L291.234133 717.653333c34.304 42.538667 81.006933 82.261333 129.416534 108.3136z" fill="#F8C27C" p-id="2055"></path><path d="M203.938133 567.210667L97.2032 696.584533c-12.893867-0.093867-25.915733 0.0768-38.8096 0l22.5536-11.400533c13.1584-10.555733 20.949333-23.0144 25.275733-39.406933 7.5264-28.5184 1.425067-62.958933-18.722133-85.034667l29.175467-27.426133c22.0928-24.9088 42.0608-52.932267 64.5632-77.7472 4.974933-5.486933 10.897067-9.514667 16.2304-14.4896 3.3536 2.082133 6.587733 2.525867 6.5536 8.0128-0.128 39.3728-0.1024 78.7968-0.085334 118.135466z" fill="#B6D1CF" p-id="2056"></path><path d="M197.469867 441.0624c-5.333333 4.983467-11.255467 9.002667-16.2304 14.4896-22.5024 24.814933-42.4704 52.846933-64.5632 77.7472l-29.175467 27.426133c-8.797867-9.634133-15.752533-13.627733-29.1072-16.170666-2.9696-16.170667 25.4208-22.2208 19.456-35.362134l7.458133-0.7168c1.937067-0.162133 1.5872-2.056533 2.2016-2.7392 11.784533-13.038933 2.7136-21.9648-13.038933-17.792-8.439467 2.235733-6.749867 3.328-6.365867 11.323734-4.5056-7.296-4.3776-11.229867-13.1072-14.779734l0.170667-36.9664c0.4864-1.3568-1.006933-4.5056 0.375467-5.981866 4.778667-1.7408 8.763733-3.4304 14.037333-3.874134 39.458133-3.259733 83.268267 2.781867 123.255467 0.068267 4.693333 0.6144 4.258133 3.072 4.642133 3.310933z m-103.355734 21.435733c0-6.7328-5.461333-12.194133-12.194133-12.194133s-12.194133 5.461333-12.194133 12.194133 5.461333 12.194133 12.194133 12.194134 12.194133-5.461333 12.194133-12.194134z" fill="#C8DCD8" p-id="2057"></path><path d="M97.2032 696.584533L203.938133 567.210667c0.017067 41.975467 1.211733 84.48-1.4848 126.276266-2.645333 3.712-5.9392 2.909867-9.736533 3.2-29.5424 2.261333-65.28 0.128-95.5136-0.093866z" fill="#CFE2DE" p-id="2058"></path><path d="M44.245333 564.3776c24.4736-7.1424 43.648 22.101333 46.4384 43.306667 4.565333 34.679467-13.3888 79.419733-55.099733 68.036266-19.6608-25.2672-23.304533-72.1664-4.599467-98.7392 1.9712-2.798933 10.7008-11.869867 13.2608-12.612266z" fill="#F6EEDC" p-id="2059"></path><path d="M158.660267 715.989333c-8.695467 15.351467-26.589867 20.650667-38.8096 32.341334-0.6144-0.426667-3.754667 0.093867-6.263467-1.6896-12.509867-8.9088-27.2128-17.851733-35.7888-30.6432 26.9056-0.324267 53.956267 0.4096 80.861867 0z" fill="#F6EED8" p-id="2060"></path><path d="M55.159467 447.530667l-0.170667 36.9664c8.7296 3.5584 8.593067 7.483733 13.1072 14.779733 0.810667 1.322667 4.4544 6.528 5.137067 6.638933l14.267733-0.170666c-0.6144 0.682667-0.264533 2.568533-2.2016 2.7392l-7.458133 0.7168c5.9648 13.141333-22.417067 19.191467-19.456 35.362133-1.928533-0.366933-4.369067 0.290133-6.459734 0 2.363733-29.474133-3.2-63.488-0.0512-92.373333 0.452267-4.189867 3.182933-4.394667 3.285334-4.667734z" fill="#B6CFCE" p-id="2061"></path><path d="M81.92 462.498133m-12.194133 0a12.194133 12.194133 0 1 0 24.388266 0 12.194133 12.194133 0 1 0-24.388266 0Z" fill="#53382F" p-id="2062"></path><path d="M87.5008 505.7536l-14.267733 0.170667c-0.6912-0.1024-4.3264-5.316267-5.137067-6.638934-0.384-7.995733-2.0736-9.088 6.365867-11.323733 15.752533-4.1728 24.823467 4.753067 13.038933 17.792z" fill="#523C32" p-id="2063"></path><path d="M698.811733 686.882133v3.234134l-4.855466 3.208533-1.6128-3.208533c3.6864-3.831467 6.186667-2.9696 6.468266-3.234134z" fill="#F9F0DC" p-id="2064"></path><path d="M594.4064 571.016533l5.589333-0.682666c21.546667 4.471467 57.2928 13.098667 62.728534 37.8112 6.656 30.250667-39.739733 41.1136-62.037334 36.164266-4.002133-0.887467-16.375467-9.2672-19.9936-12.356266-14.464-12.347733-29.892267-39.278933-11.1872-53.3504 8.004267-6.024533 16.238933-3.7632 24.900267-7.586134z" fill="#522F27" p-id="2065"></path><path d="M410.948267 534.8608c-6.946133 8.977067-19.857067-0.631467-27.349334-0.128-3.2256 0.213333-13.7472 4.155733-17.015466 5.896533-12.4672 6.656-22.2464 19.9424-31.556267 29.8752-8.6272 12.706133-2.901333 50.517333 7.978667 59.793067 2.9184 2.491733 8.8576 4.096 12.885333 6.519467 3.080533 1.851733 4.488533 5.742933 8.704 7.466666 2.6112 1.066667 16.136533 4.096 18.705067 3.899734 3.259733-0.256 6.408533-2.850133 9.915733-3.3024 5.137067-0.6656 10.837333 0.930133 15.7184-0.443734 1.655467-0.469333 24.789333-20.0192 26.222933-22.2976 0.9216-1.467733 7.441067-14.165333 7.671467-14.976 3.908267-13.815467 1.1008-27.170133-4.309333-40.029866-1.390933-3.293867-6.690133-13.815467-8.157867-16.1024l32.341333 19.4048c-10.589867-1.390933-5.8368 3.771733-4.8896 9.728 1.570133 9.856 0.725333 27.255467-1.9712 36.770133-0.2816 0.9984-10.589867 14.3872-12.484266 16.631467-10.973867 13.013333-32.827733 29.3632-50.048 30.788266-8.021333 0.6656-23.953067-1.698133-31.931734-3.925333-15.8208-4.420267-36.0448-19.447467-43.562666-34.065067-8.900267-17.314133-10.717867-41.250133-2.141867-59.0336 7.765333-16.1024 34.679467-41.156267 52.130133-44.9024 5.691733-1.220267 14.5152 2.013867 17.271467-3.754666 10.538667 5.4784 16.034133 9.088 25.873067 16.170666z" fill="#F9BF9F" p-id="2066"></path><path d="M841.122133 641.595733l12.868267 17.851734c3.447467 3.925333 8.277333 7.150933 11.306667 11.332266 1.5104 2.090667 10.641067 17.152 10.939733 18.167467 5.009067 17.3056-2.184533 45.585067-15.837867 57.642667-8.1664 7.2192-33.160533 16.930133-43.5712 16.759466-3.908267-0.068267-28.7232-8.9856-32.443733-11.665066-1.8176-1.3056-17.809067-20.386133-19.259733-22.792534-7.278933-12.0576-7.236267-49.322667 0-61.405866 3.899733-6.510933 14.634667-11.5712 17.7664-19.4304 19.447467-1.322667 37.947733-5.597867 58.222933-6.468267z m-60.8768 90.0096c10.453333 5.905067 21.819733 14.370133 34.0736 16.3072 2.210133 0.349867 24.994133-3.387733 26.888534-4.334933 3.549867-1.774933 16.529067-16.7424 17.8688-20.949333 2.551467-8.0128 0.4352-16.5888 4.7872-24.541867 0.4608-5.265067-11.835733-24.6016-16.145067-29.115733-21.7088-22.7072-41.796267-12.049067-67.575467-4.2496-14.6688 23.313067-11.383467 43.144533 0.110934 66.884266z" fill="#F8B393" p-id="2067"></path><path d="M410.948267 534.8608c8.448 6.084267 12.458667 5.333333 19.4048 16.170667 1.467733 2.286933 6.766933 12.808533 8.157866 16.1024 5.418667 12.859733 8.2176 26.2144 4.309334 40.029866-0.2304 0.810667-6.741333 13.508267-7.671467 14.976-1.4336 2.269867-24.558933 21.828267-26.222933 22.2976-4.881067 1.373867-10.581333-0.221867-15.7184 0.443734-3.498667 0.452267-6.647467 3.0464-9.915734 3.3024-2.56 0.196267-16.085333-2.833067-18.705066-3.899734-4.224-1.723733-5.632-5.614933-8.704-7.466666-4.027733-2.423467-9.966933-4.027733-12.885334-6.519467-10.88-9.275733-16.605867-47.086933-7.978666-59.793067 9.3184-9.9328 19.089067-23.2192 31.556266-29.8752 3.268267-1.7408 13.789867-5.6832 17.015467-5.896533 7.5008-0.503467 20.411733 9.105067 27.349333 0.128z m-51.080534 26.555733c-0.529067 0.5376-8.2944 11.460267-8.738133 12.288-4.411733 8.209067-6.971733 24.6272-4.411733 33.467734 1.5616 5.393067 19.310933 22.8864 24.183466 24.328533 7.04 2.082133 19.5584-0.128 28.219734 3.3536 20.906667-13.755733 34.730667-26.1632 31.172266-53.034667-0.7168-5.384533-5.76-19.4304-9.634133-22.715733-5.102933-4.3264-27.460267-11.904-33.877333-11.4688-3.498667 0.238933-24.490667 11.332267-26.914134 13.7728z" fill="#F9AF8F" p-id="2068"></path><path d="M647.0656 696.593067c-11.246933 41.617067-55.236267 68.232533-93.713067 40.337066-18.8928-13.696-21.8368-47.889067-22.724266-69.4528 1.1776-1.220267 19.8912 5.888 24.328533 6.391467 12.177067 1.3824 31.163733-2.449067 41.506133 0.5376 4.599467 1.322667 14.626133 11.0336 21.418667 14.165333 8.226133 3.797333 20.078933 6.929067 29.184 8.021334z" fill="#F59071" p-id="2069"></path><path d="M780.245333 731.605333c-11.485867-23.739733-14.7712-43.5712-0.110933-66.884266 25.7792-7.808 45.8752-18.466133 67.575467 4.2496 4.317867 4.514133 16.605867 23.850667 16.145066 29.115733-4.352 7.953067-2.235733 16.529067-4.7872 24.541867-1.339733 4.206933-14.3104 19.1744-17.8688 20.949333-1.902933 0.9472-24.6784 4.6848-26.888533 4.334933-12.253867-1.937067-23.620267-10.402133-34.0736-16.3072z m20.846934-60.484266c-9.326933 2.7392-19.490133 23.7056-17.834667 32.964266 10.180267 19.4048 27.076267 35.5072 48.0768 19.908267 5.981867-4.445867 13.124267-14.455467 12.484267-21.973333-1.518933-17.860267-25.984-35.8144-42.717867-30.890667z" fill="#F7A182" p-id="2070"></path><path d="M359.867733 561.416533c2.432-2.440533 23.415467-13.533867 26.914134-13.7728 6.417067-0.4352 28.7744 7.1424 33.877333 11.4688 3.874133 3.285333 8.917333 17.322667 9.634133 22.715734 3.5584 26.88-10.2656 39.278933-31.172266 53.034666-8.661333-3.4816-21.179733-1.271467-28.219734-3.3536-4.881067-1.442133-22.621867-18.935467-24.183466-24.328533-2.568533-8.849067 0-25.258667 4.411733-33.467733 0.452267-0.836267 8.209067-11.758933 8.738133-12.288z m50.4064 47.163734c0.4608-0.452267 6.485333-10.487467 6.673067-11.1104 5.521067-18.4832-9.582933-37.461333-29.730133-32.955734-8.456533 1.8944-12.561067 11.144533-21.0944 12.834134-6.289067 24.746667 3.165867 40.516267 29.841066 41.386666 3.003733-4.881067 11.861333-7.739733 14.3104-10.154666z" fill="#F89F7F" p-id="2071"></path><path d="M801.092267 671.121067c16.733867-4.923733 41.198933 13.0304 42.717866 30.890666 0.64 7.517867-6.5024 17.536-12.484266 21.973334-20.992 15.598933-37.896533-0.503467-48.0768-19.908267-1.646933-9.258667 8.516267-30.216533 17.834666-32.964267z" fill="#F79173" p-id="2072"></path><path d="M410.274133 608.580267c-2.440533 2.423467-11.306667 5.282133-14.3104 10.154666-26.6752-0.878933-36.130133-16.64-29.841066-41.386666 8.5248-1.698133 12.637867-10.948267 21.0944-12.834134 20.1472-4.5056 35.2512 14.472533 29.730133 32.955734-0.187733 0.622933-6.212267 10.6496-6.673067 11.1104z" fill="#F89072" p-id="2073"></path></svg>