<?xml version="1.0" standalone="no"?><!DOCTYPE svg PUBLIC "-//W3C//DTD SVG 1.1//EN" "http://www.w3.org/Graphics/SVG/1.1/DTD/svg11.dtd"><svg t="1768207589103" class="icon" viewBox="0 0 1024 1024" version="1.1" xmlns="http://www.w3.org/2000/svg" p-id="7242" xmlns:xlink="http://www.w3.org/1999/xlink" width="96" height="96"><path d="M770.56 874.048L512 615.488l-258.56 258.56a73.344 73.344 0 0 1-103.488 0 73.344 73.344 0 0 1 0-103.424L408.512 512l-258.56-258.56a73.344 73.344 0 0 1 0-103.488 73.344 73.344 0 0 1 103.424 0L512 408.512l258.56-258.56a73.344 73.344 0 0 1 103.488 0 73.344 73.344 0 0 1 0 103.424L615.488 512l258.56 258.56a73.344 73.344 0 0 1 0 103.488 73.344 73.344 0 0 1-103.424 0z" fill="#000000" p-id="7243"></path></svg>