<?xml version="1.0" standalone="no"?><!DOCTYPE svg PUBLIC "-//W3C//DTD SVG 1.1//EN" "http://www.w3.org/Graphics/SVG/1.1/DTD/svg11.dtd"><svg t="1770371612835" class="icon" viewBox="0 0 1024 1024" version="1.1" xmlns="http://www.w3.org/2000/svg" p-id="4822" xmlns:xlink="http://www.w3.org/1999/xlink" width="96" height="96"><path d="M949.146837 972.937238a101.856806 101.856806 0 0 1-28.4073 35.125243 84.198214 84.198214 0 0 1-54.895189 15.73918H159.116784a86.62947 86.62947 0 0 1-55.534993-15.547239 101.153022 101.153022 0 0 1-27.767496-35.189223A133.719049 133.719049 0 0 1 63.97792 920.921168V433.838337a93.795275 93.795275 0 0 1 15.931121-61.229249c10.556767-12.348218 20.40975-22.713044 29.047104-31.222438L202.815401 255.524945h636.733001L914.91732 341.38665c8.573374 8.509394 18.490337 18.87422 29.047104 31.222438a92.771589 92.771589 0 0 1 15.73918 61.101288v487.082831a123.034321 123.034321 0 0 1-10.556767 52.144031zM703.78198 575.938819H575.821168V447.978007H447.860356v127.960812H319.899544v127.960812h127.960812v127.960812h127.960812v-127.960812h127.960812V575.938819z m109.598435-390.280477a572.688614 572.688614 0 0 1-91.364019 6.398041H238.83637a45.809971 45.809971 0 0 1-27.767497-6.398041 40.179695 40.179695 0 0 1-12.796081-15.483258 55.790914 55.790914 0 0 1-5.374354-23.288868V62.048198A58.030228 58.030228 0 0 1 202.815401 25.323445 60.909347 60.909347 0 0 1 255.919138 0.115165h447.862842a659.510025 659.510025 0 0 1 95.970609 6.39804 70.378447 70.378447 0 0 1 21.753338 18.682279 58.030228 58.030228 0 0 1 9.916963 36.724753V147.270099a53.423639 53.423639 0 0 1-5.374354 23.224887 40.371636 40.371636 0 0 1-12.668121 15.163356z" fill="#079EEC" p-id="4823"></path></svg>