<?xml version="1.0" standalone="no"?><!DOCTYPE svg PUBLIC "-//W3C//DTD SVG 1.1//EN" "http://www.w3.org/Graphics/SVG/1.1/DTD/svg11.dtd"><svg t="1770371676475" class="icon" viewBox="0 0 1024 1024" version="1.1" xmlns="http://www.w3.org/2000/svg" p-id="6030" xmlns:xlink="http://www.w3.org/1999/xlink" width="96" height="96"><path d="M650.496 501.2992h-169.984L263.68 718.0288a30.208 30.208 0 1 1-42.8032-42.8032l437.248-437.1968 127.7952 127.7952-135.4752 135.4752z m257.7408-100.096L622.7456 115.712a30.72 30.72 0 1 0-43.4176 43.52l35.328 35.328-463.5648 463.5648a152.064 152.064 0 0 0 0.0512 214.7328 151.9616 151.9616 0 0 0 214.6816 0L829.44 409.2928l35.3792 35.3792a30.7712 30.7712 0 0 0 43.52-43.4688z m-169.1648 270.9504l-47.0016 47.0016a66.56 66.56 0 0 0 0 94.0032 66.56 66.56 0 0 0 94.0544 0 66.56 66.56 0 0 0 0-94.0032l-47.0016-47.0016z m-90.4704 184.4736a128.1024 128.1024 0 0 1 0-180.9408l68.8128-68.7104a30.72 30.72 0 0 1 43.4176 0l68.7616 68.7104c49.8688 49.8688 49.8688 131.072 0 180.9408a128.1024 128.1024 0 0 1-180.9408 0z" fill="#6378FF" p-id="6031"></path></svg>