<?xml version="1.0" standalone="no"?><!DOCTYPE svg PUBLIC "-//W3C//DTD SVG 1.1//EN" "http://www.w3.org/Graphics/SVG/1.1/DTD/svg11.dtd"><svg t="1770371702046" class="icon" viewBox="0 0 1066 1024" version="1.1" xmlns="http://www.w3.org/2000/svg" p-id="7190" xmlns:xlink="http://www.w3.org/1999/xlink" width="99.9375" height="96"><path d="M648.613892 663.366576L361.213656 378.225807l177.452012-176.055081c39.681823-39.370352 104.018816-39.370352 143.700639 0l143.701681 142.568301c39.67974 39.36931 39.67974 103.201074 0 142.570385L648.613892 663.366576z" fill="#E5F2EF" p-id="7191"></path><path d="M511.781241 175.07379L89.293217 594.235638l341.597233 338.906498 422.05884-418.735788c54.731394-54.300126 54.731394-142.46413 0-196.764256l-143.698556-142.568302c-54.563679-54.134494-142.905815-54.134494-197.469493 0z m287.401278 196.762173l0.73128 0.73753c23.898889 24.49058 23.655129 63.444248-0.73128 87.638983L430.89045 825.603386 197.684085 594.234596l367.864969-364.965892c24.799967-24.605168 65.1339-24.605168 89.933868 0l143.699597 142.568301z" fill="#008066" p-id="7192"></path><path d="M305.212419 587.503072l-53.948028-53.523011c-14.763101-14.646429-14.856855-38.489066-0.210426-53.252167l0.210426-0.211467 0.060419-0.059377c14.881856-14.764142 38.886999-14.764142 53.767813 0l53.948028 53.523011c14.763101 14.647471 14.857896 38.490108 0.210425 53.253209l-0.210425 0.210425-0.060419 0.060419c-14.881856 14.764142-38.885957 14.764142-53.767813 0zM714.838462 116.183894l-81.198096 80.558486L849.497066 410.902136l80.77412-80.13451c34.887878-34.619117 34.887878-90.865156 0-125.479064l-89.814071-89.10571c-34.721204-34.45036-90.897449-34.45036-125.618653 0z m71.85084 54.193872l89.814071 89.106751 0.239593 0.24376c4.550185 4.764777 4.469974 12.17237-0.241676 16.84756l-27.003182 26.78859L742.030193 196.741339l26.576082-26.363573c4.875198-4.838739 12.851565-4.91895 17.829892-0.24376l0.252093 0.24376z" fill="#008066" p-id="7193"></path><path d="M840.521701 152.187443l125.797827-124.807162c14.881856-14.765184 38.885957-14.765184 53.767813-0.001042l0.060419 0.059377c14.763101 14.647471 14.856855 38.490108 0.210425 53.254251l-0.210425 0.210425-125.798869 124.807162c-14.880814 14.764142-38.884916 14.764142-53.767813 0l-0.059377-0.059378c-14.763101-14.647471-14.857896-38.490108-0.210425-53.253208l0.210425-0.210425zM314.195076 798.813754l53.767813 54.193872-89.815113 89.104667-53.766771-54.194914 89.814071-89.104667zM170.493396 656.242328l53.768854 54.193871-89.813029 89.107793-53.768855-54.194914 89.81303-89.107792z" fill="#008066" p-id="7194"></path><path d="M475.858946 980.684696L26.735463 535.096773c-14.764142-14.647471-14.857896-38.490108-0.211467-53.253208l0.211467-0.210426 0.059377-0.060419c14.881856-14.764142 38.886999-14.764142 53.767813 0L529.68822 927.162726c14.763101 14.646429 14.856855 38.489066 0.210425 53.253209l-0.210425 0.210425-0.060419 0.059378c-14.881856 14.764142-38.885957 14.764142-53.767813 0zM260.305384 995.271748L26.732338 763.537318c-14.764142-14.647471-14.857896-38.490108-0.210425-53.253208l0.210425-0.210425 0.059377-0.060419c14.881856-14.764142 38.886999-14.764142 53.767813 0l233.574087 231.735471c14.763101 14.646429 14.856855 38.489066 0.210426 53.252166l-0.210426 0.211467-0.060419 0.059378c-14.881856 14.764142-38.885957 14.764142-53.767812 0zM1066.710071 262.892989c0 35.578531-17.060069 53.368838-38.104675 53.368838-21.042523 0-38.103634-23.894722-38.103634-53.368838 0-20.401872 8.172208-59.433668 20.179988-81.534568 6.657563-12.253624 17.405917-4.871032 20.431039 8.720147 8.48472 38.104675 35.597282 42.799658 35.597282 72.814421zM1041.306954 497.130645c0 47.43943-22.745717 71.160187-50.805192 71.160187-28.060517 0-50.806234-31.858588-50.806234-71.159145 0-29.591829 12.894275-88.578604 31.242938-115.924509 7.773233-11.585888 19.238283-3.137628 21.364411 10.621266 9.035784 58.468004 49.004077 63.223406 49.004077 105.302201z" fill="#008066" p-id="7195"></path></svg>