<?xml version="1.0" standalone="no"?><!DOCTYPE svg PUBLIC "-//W3C//DTD SVG 1.1//EN" "http://www.w3.org/Graphics/SVG/1.1/DTD/svg11.dtd"><svg t="1768204688954" class="icon" viewBox="0 0 1024 1024" version="1.1" xmlns="http://www.w3.org/2000/svg" p-id="9429" xmlns:xlink="http://www.w3.org/1999/xlink" width="96" height="96"><path d="M179.925333 521.301333L512 853.354667l332.074667-332.074667A201.770667 201.770667 0 0 0 566.826667 228.266667l-54.869334 49.066666-54.826666-49.066666A201.770667 201.770667 0 0 0 179.925333 521.322667z" fill="#000000" p-id="9430"></path><path d="M428.693333 260.053333A159.104 159.104 0 0 0 210.090667 491.136L512 793.002667l301.909333-301.866667A159.104 159.104 0 0 0 595.285333 260.053333l-54.848 49.066667a42.666667 42.666667 0 0 1-56.917333 0l-54.826667-49.066667zM143.253333 212.544c90.624-97.856 242.965333-105.002667 342.336-16.064L512 220.074667l26.410667-23.616c99.413333-88.938667 251.733333-81.770667 342.336 16.085333 89.237333 96.384 86.357333 246.037333-6.506667 338.922667L542.144 883.52a42.666667 42.666667 0 0 1-60.330667 0L149.76 551.466667c-92.885333-92.885333-95.744-242.56-6.506667-338.922667z" fill="#000000" p-id="9431"></path><path d="M384 469.333333h256v85.333334H384v-85.333334z" fill="#FFFFFF" p-id="9432"></path><path d="M554.666667 384v256h-85.333334V384h85.333334z" fill="#FFFFFF" p-id="9433"></path></svg>