<?xml version="1.0" standalone="no"?><!DOCTYPE svg PUBLIC "-//W3C//DTD SVG 1.1//EN" "http://www.w3.org/Graphics/SVG/1.1/DTD/svg11.dtd"><svg t="1768910545526" class="icon" viewBox="0 0 1024 1024" version="1.1" xmlns="http://www.w3.org/2000/svg" p-id="20531" xmlns:xlink="http://www.w3.org/1999/xlink" width="96" height="96"><path d="M682.666667 810.666667H341.333333V213.333333h341.333334m21.333333-85.333333h-384A64 64 0 0 0 256 192v640A64 64 0 0 0 320 896h384a64 64 0 0 0 64-64v-640A64 64 0 0 0 704 128M810.666667 725.333333h85.333333V298.666667h-85.333333m128 85.333333v256h85.333333V384M128 725.333333h85.333333V298.666667H128m-128 341.333333h85.333333V384H0v256z" fill="" p-id="20532"></path></svg>