<?xml version="1.0" standalone="no"?><!DOCTYPE svg PUBLIC "-//W3C//DTD SVG 1.1//EN" "http://www.w3.org/Graphics/SVG/1.1/DTD/svg11.dtd"><svg t="1768211758135" class="icon" viewBox="0 0 1024 1024" version="1.1" xmlns="http://www.w3.org/2000/svg" p-id="32067" xmlns:xlink="http://www.w3.org/1999/xlink" width="96" height="96"><path d="M435.2 139.776A45.653333 45.653333 0 0 1 480 85.333333h64.426667c20.864 0 38.485333 14.08 43.946666 33.194667a300.032 300.032 0 0 0-105.002666 90.368c-54.570667 7.765333-167.253333 41.088-167.253334 183.210667v177.493333c0 42.24-34.56 76.8-76.8 76.8-3.413333 0-6.4 2.56-6.4 6.4v65.706667h558.08v-43.093334a296.704 296.704 0 0 0 76.970667-28.970666c0.213333 2.261333 0.298667 4.522667 0.298667 6.784v100.693333c0 23.04-18.773333 41.813333-41.813334 41.813333H197.973333c-23.04 0-41.813333-18.773333-41.813333-41.813333v-100.693333c0-45.653333 37.12-83.2 83.2-83.2V392.533333c0-153.173333 99.584-227.669333 195.84-252.757333zM411.733333 935.68c-21.76 0-39.68-17.92-39.68-39.68s17.92-39.68 39.68-39.68h200.533334c21.76 0 39.68 17.92 39.68 39.68s-17.92 39.68-39.68 39.68h-200.533334z" p-id="32068"></path><path d="M891.733333 402.773333c0.853333-6.4 1.706667-12.373333 1.706667-18.773333 0-6.4-1.28-12.373333-1.706667-18.773333l32.426667-27.733334c6.4-5.546667 7.68-14.506667 3.84-21.333333L883.2 238.933333c-4.266667-7.253333-12.8-10.24-20.48-7.68l-40.106667 14.08c-10.24-7.68-20.906667-14.08-32.853333-19.2l-7.253333-41.386666a16.938667 16.938667 0 0 0-16.64-14.08h-89.173334c-8.106667 0-15.36 5.973333-16.64 14.08l-7.68 41.386666c-11.946667 5.12-22.613333 11.946667-32.853333 19.2l-40.106667-14.08a17.28 17.28 0 0 0-20.48 7.68l-44.373333 77.226667c-4.266667 7.253333-2.56 16.213333 3.84 21.333333l32.426667 27.733334c-0.853333 6.4-2.133333 12.373333-2.133334 18.773333 0 6.4 1.28 12.373333 1.706667 18.773333l-32.426667 27.733334c-6.4 5.546667-7.68 14.506667-3.84 21.333333l44.8 77.226667c4.266667 7.253333 12.8 10.24 20.48 7.68l40.106667-14.08c10.24 7.68 20.906667 14.08 32.853333 19.2l7.68 41.386666c1.28 8.106667 8.533333 14.08 16.64 14.08h89.173334c8.106667 0 15.36-5.973333 16.64-14.08l7.68-41.386666c11.946667-5.12 22.613333-11.946667 32.853333-19.2l40.106667 14.08c7.68 2.56 16.213333-0.426667 20.48-7.68l44.8-77.226667c4.266667-7.253333 2.56-16.213333-3.84-21.333333l-32.853334-27.733334z m-170.666666 67.413334a86.186667 86.186667 0 1 1 0.085333-172.458667 86.186667 86.186667 0 0 1-0.085333 172.458667z" p-id="32069"></path></svg>