<?xml version="1.0" standalone="no"?><!DOCTYPE svg PUBLIC "-//W3C//DTD SVG 1.1//EN" "http://www.w3.org/Graphics/SVG/1.1/DTD/svg11.dtd"><svg t="1770372831664" class="icon" viewBox="0 0 1024 1024" version="1.1" xmlns="http://www.w3.org/2000/svg" p-id="10928" xmlns:xlink="http://www.w3.org/1999/xlink" width="96" height="96"><path d="M514.816 85.333333c75.434667 0 150.272 23.210667 224.085333 69.034667a34.56 34.56 0 0 1 16.213334 25.813333l0.170666 3.584v189.866667a241.322667 241.322667 0 0 1-90.965333 188.842667c141.525333 43.434667 245.888 171.733333 252.714667 325.888l0.298666 8.106666 0.085334 7.253334a34.645333 34.645333 0 0 1-31.573334 34.816l-3.157333 0.128H141.397333a34.816 34.816 0 0 1-34.730666-34.56c0-160.725333 106.496-296.661333 253.098666-341.674667a241.237333 241.237333 0 0 1-90.794666-180.906667L268.8 373.589333v-189.866666a34.56 34.56 0 0 1 17.066667-29.781334C363.178667 108.416 439.594667 85.333333 514.816 85.333333z m43.52 530.474667h-92.586667c-145.621333 0-266.069333 106.922667-286.549333 246.186667l-0.938667 7.466666h667.605334l-0.853334-6.826666c-19.541333-135.168-133.12-239.701333-272.256-246.485334l-7.253333-0.256-7.125333-0.085333z m-43.52-276.778667c-56.576 0-115.114667 16.213333-175.872 49.024 7.125333 85.333333 75.946667 152.576 161.706667 158.208l5.76 0.256 5.632 0.085334a173.44 173.44 0 0 0 173.184-159.018667c-57.472-32.512-114.133333-48.554667-170.410667-48.554667z m0-184.490666c-52.565333 0-106.837333 13.952-162.986667 42.24L341.333333 202.24l-2.986666 1.578667v107.093333c59.477333-27.306667 118.357333-41.130667 176.512-41.130667 57.386667 0 114.432 13.482667 170.965333 40.106667V203.392l-2.56-1.493333c-50.218667-28.117333-99.925333-43.605333-149.248-46.762667l-9.898667-0.469333-9.258666-0.170667z m-1.621333 493.354666c17.92 0 32.853333 13.568 34.56 31.274667l0.170666 3.328v34.602667h34.730667a34.645333 34.645333 0 0 1 3.370667 69.034666l-3.370667 0.170667h-34.730667v34.56a34.645333 34.645333 0 0 1-33.066666 34.56 34.688 34.688 0 0 1-36.266667-31.232l-0.170667-3.285333v-34.602667H443.733333a34.688 34.688 0 0 1-34.688-32.938667 34.645333 34.645333 0 0 1 31.36-36.096l3.328-0.170666h34.730667v-34.56c0-19.157333 15.573333-34.645333 34.773333-34.645334z" fill="#424242" p-id="10929"></path></svg>