<?xml version="1.0" standalone="no"?><!DOCTYPE svg PUBLIC "-//W3C//DTD SVG 1.1//EN" "http://www.w3.org/Graphics/SVG/1.1/DTD/svg11.dtd"><svg t="1768211779602" class="icon" viewBox="0 0 1024 1024" version="1.1" xmlns="http://www.w3.org/2000/svg" p-id="33261" xmlns:xlink="http://www.w3.org/1999/xlink" width="96" height="96"><path d="M804.571429 527.469714v239.469715a73.142857 73.142857 0 0 1-73.142858 73.142857H292.571429a73.142857 73.142857 0 0 1-73.142858-73.142857v-239.469715l-11.081142 10.752a36.571429 36.571429 0 1 1-50.980572-52.443428l252.708572-245.540572a146.285714 146.285714 0 0 1 203.885714 0l252.672 245.540572a36.571429 36.571429 0 0 1-50.980572 52.443428L804.571429 527.469714zM365.714286 512a36.571429 36.571429 0 0 0 0 73.142857h292.571428a36.571429 36.571429 0 0 0 0-73.142857h-292.571428z m0 146.285714a36.571429 36.571429 0 0 0 0 73.142857h182.857143a36.571429 36.571429 0 0 0 0-73.142857h-182.857143z" fill="#2c2c2c" p-id="33262"></path></svg>