<?xml version="1.0" standalone="no"?><!DOCTYPE svg PUBLIC "-//W3C//DTD SVG 1.1//EN" "http://www.w3.org/Graphics/SVG/1.1/DTD/svg11.dtd"><svg t="1768211917845" class="icon" viewBox="0 0 1024 1024" version="1.1" xmlns="http://www.w3.org/2000/svg" p-id="36321" xmlns:xlink="http://www.w3.org/1999/xlink" width="96" height="96"><path d="M654.976 464.32H369.024a27.136 27.136 0 0 0-26.88 27.52c0 15.168 12.032 27.52 26.88 27.52h285.952a27.136 27.136 0 0 0 26.88-27.52 27.136 27.136 0 0 0-26.88-27.52z m0 138.24H369.024a27.712 27.712 0 0 0-27.392 28.032c0 15.488 12.288 28.096 27.392 28.096h285.952a27.136 27.136 0 0 0 26.88-27.52 27.136 27.136 0 0 0-26.88-27.52v-1.088z m0 138.624H369.024a27.136 27.136 0 0 0-26.88 27.52c0 15.168 12.032 27.52 26.88 27.52h285.952a27.136 27.136 0 0 0 26.88-27.52 27.136 27.136 0 0 0-26.88-27.52z" fill="#2c2c2c" p-id="36322"></path><path d="M798.016 145.28H675.392C635.328 52.864 529.728 11.136 439.488 52.224a181.12 181.12 0 0 0-90.88 93.184H225.984c-59.2 0-107.264 49.28-107.264 110.016v623.36c0 60.672 48 109.952 107.264 109.952h572.032c59.2 0 107.264-49.28 107.264-110.016V255.36c0-60.736-48-109.952-107.264-109.952z m-396.16 73.408l6.848-27.52c15.872-58.496 75.008-92.8 132.096-76.48a108.672 108.672 0 0 1 74.496 76.48l6.784 27.52h68.672v73.344H333.248V218.688H401.92z m431.872 659.968c0 20.288-16 36.672-35.712 36.672H225.92a36.224 36.224 0 0 1-35.712-36.672V255.36c0-20.224 16-36.608 35.712-36.608h35.776v73.344c0 40.448 32 73.28 71.488 73.28h357.504c39.488 0 71.488-32.832 71.488-73.28V218.688h35.776c19.712 0 35.712 16.384 35.712 36.672v623.36z" fill="#2c2c2c" p-id="36323"></path></svg>