<?xml version="1.0" standalone="no"?><!DOCTYPE svg PUBLIC "-//W3C//DTD SVG 1.1//EN" "http://www.w3.org/Graphics/SVG/1.1/DTD/svg11.dtd"><svg t="1768807211034" class="icon" viewBox="0 0 1024 1024" version="1.1" xmlns="http://www.w3.org/2000/svg" p-id="8125" xmlns:xlink="http://www.w3.org/1999/xlink" width="96" height="96"><path d="M853.333333 42.666667a170.666667 170.666667 0 0 1 170.666667 170.666666v469.333334a170.666667 170.666667 0 0 1-170.666667 170.666666h-124.885333a128 128 0 0 0-75.690667 24.746667L512 981.333333l-140.757333-103.253333A128 128 0 0 0 295.552 853.333333H170.666667a170.666667 170.666667 0 0 1-170.666667-170.666666V213.333333a170.666667 170.666667 0 0 1 170.666667-170.666666h682.666666z m0 85.333333H170.666667a85.333333 85.333333 0 0 0-85.333334 85.333333v469.333334a85.333333 85.333333 0 0 0 85.333334 85.333333h124.885333a213.333333 213.333333 0 0 1 126.165333 41.301333L512 875.52l90.282667-66.218667A213.333333 213.333333 0 0 1 728.448 768H853.333333a85.333333 85.333333 0 0 0 85.333334-85.333333V213.333333a85.333333 85.333333 0 0 0-85.333334-85.333333zM416 234.666667a42.666667 42.666667 0 0 1 40.362667 28.8l117.333333 341.333333a42.666667 42.666667 0 0 1-80.725333 27.733333L416 408.576l-76.970667 224a42.666667 42.666667 0 0 1-80.725333-27.776l117.333333-341.333333A42.666667 42.666667 0 0 1 416 234.666667z m266.666667 213.333333a42.666667 42.666667 0 0 1 42.666666 42.666667v128a42.666667 42.666667 0 1 1-85.333333 0v-128a42.666667 42.666667 0 0 1 42.666667-42.666667z m-9.386667-245.845333a9.813333 9.813333 0 0 1 18.773333 0c11.008 36.992 37.12 67.626667 71.936 84.352l5.248 2.517333c8.106667 3.84 8.106667 15.402667 0 19.285333l-5.248 2.517334a136.874667 136.874667 0 0 0-71.936 84.352 9.813333 9.813333 0 0 1-18.773333 0 136.874667 136.874667 0 0 0-71.936-84.352l-5.205333-2.517334a10.709333 10.709333 0 0 1 0-19.285333l5.205333-2.517333a136.874667 136.874667 0 0 0 71.936-84.352z" p-id="8126" fill="#ffffff"></path></svg>