<?xml version="1.0" standalone="no"?><!DOCTYPE svg PUBLIC "-//W3C//DTD SVG 1.1//EN" "http://www.w3.org/Graphics/SVG/1.1/DTD/svg11.dtd"><svg t="1768807953480" class="icon" viewBox="0 0 1024 1024" version="1.1" xmlns="http://www.w3.org/2000/svg" p-id="12910" xmlns:xlink="http://www.w3.org/1999/xlink" width="96" height="96"><path d="M725.75 139c88.344 0 159.95 71.669 159.95 160.063 0 35.373-11.467 68.067-30.885 94.563 15.49 10.4 30.785 23.34 45.142 39.089 37.239 40.848 62.618 94.345 70.806 161.274 2.146 17.543-10.335 33.503-27.877 35.65-17.543 2.145-33.503-10.336-35.65-27.878-6.54-53.461-26.101-94.696-54.575-125.93-12.217-13.4-25.258-24.013-38.18-32.091a140.756 140.756 0 0 0-9.633-5.532c-23.323 13.314-50.323 20.917-79.098 20.917-29.2 0-56.573-7.83-80.135-21.506l-0.304 0.1-0.37 0.123c-3.503 1.183-7.523 2.773-11.927 4.814-12.884 5.97-25.855 14.265-37.958 25.2-17.769 16.056-32.043 36.265-41.798 61.428 56.674 17.416 97.867 70.21 97.867 132.622 0 16.376-2.836 32.09-8.043 46.676 16.818 8.331 33.402 19.504 49.002 33.951 27.54 25.506 49.52 59.006 63.94 101.097 5.726 16.72-3.184 34.916-19.904 40.643-16.72 5.727-34.916-3.183-40.643-19.903-10.96-31.995-27.047-56.513-46.88-74.881-13.046-12.082-26.945-20.799-40.716-26.691l-0.167-0.07c-24.833 23.492-58.341 37.897-95.214 37.897s-70.381-14.405-95.214-37.897l-0.167 0.07c-13.771 5.892-27.67 14.609-40.716 26.691-19.833 18.368-35.92 42.886-46.88 74.881-5.727 16.72-23.924 25.63-40.643 19.903-16.72-5.727-25.63-23.924-19.903-40.643 14.418-42.09 36.4-75.591 63.939-101.097 15.6-14.447 32.184-25.62 49.006-33.953-5.211-14.584-8.047-30.298-8.047-46.674 0-62.413 41.193-115.206 97.865-132.625-9.753-25.16-24.027-45.369-41.796-61.425-12.103-10.935-25.074-19.23-37.958-25.2-4.145-1.92-7.95-3.442-11.304-4.6l-0.993-0.338-0.304-0.1c-23.562 13.677-50.934 21.507-80.135 21.507-28.775 0-55.775-7.603-79.102-20.912-2.925 1.517-6.156 3.356-9.629 5.527-12.922 8.078-25.963 18.691-38.18 32.092-28.474 31.233-48.035 72.468-54.576 125.929-2.146 17.542-18.107 30.023-35.649 27.877-17.542-2.146-30.023-18.107-27.877-35.649 8.188-66.929 33.567-120.426 70.806-161.274 14.356-15.748 29.652-28.688 45.142-39.09-19.418-26.495-30.885-59.19-30.885-94.563C139.3 210.67 210.906 139 299.25 139S459.2 210.669 459.2 299.063c0 33.59-10.34 64.764-28.009 90.508l-0.61 0.876c14.478 7.826 28.753 17.71 42.27 29.923a218.865 218.865 0 0 1 39.65 47.605 218.817 218.817 0 0 1 39.648-47.605c13.517-12.214 27.793-22.098 42.272-29.923-18.044-25.91-28.621-57.412-28.621-91.385C565.8 210.67 637.406 139 725.75 139zM512.456 587.194h-0.15l-0.202-0.002c-41.026 0.21-74.229 33.574-74.229 74.714 0 16.608 5.411 31.949 14.563 44.353 0.259 0.326 0.508 0.659 0.752 0.997l0.47 0.614c13.66 17.504 34.94 28.755 58.84 28.755 23.9 0 45.18-11.251 58.84-28.755l0.47-0.614c0.25-0.348 0.508-0.69 0.771-1.027 9.141-12.397 14.544-27.727 14.544-44.323 0-41.272-33.417-74.718-74.625-74.718l0.424 0.003-0.468 0.003zM725.75 203c-52.985 0-95.95 43.002-95.95 96.063 0 53.06 42.965 96.062 95.95 96.062s95.95-43.002 95.95-96.063c0-53.06-42.965-96.062-95.95-96.062z m-426.5 0c-52.985 0-95.95 43.002-95.95 96.063 0 53.06 42.965 96.062 95.95 96.062s95.95-43.002 95.95-96.063c0-53.06-42.965-96.062-95.95-96.062z" p-id="12911"></path></svg>