<?xml version="1.0" standalone="no"?><!DOCTYPE svg PUBLIC "-//W3C//DTD SVG 1.1//EN" "http://www.w3.org/Graphics/SVG/1.1/DTD/svg11.dtd"><svg t="1768807197949" class="icon" viewBox="0 0 1024 1024" version="1.1" xmlns="http://www.w3.org/2000/svg" p-id="7064" xmlns:xlink="http://www.w3.org/1999/xlink" width="96" height="96"><path d="M531.52 131.776l375.296 202.24c15.552 8.32 21.376 27.84 12.928 43.392a31.872 31.872 0 0 1-43.328 12.992l-8.064-4.416V838.4c0 31.68-25.856 57.6-57.6 57.6h-588.8a57.664 57.664 0 0 1-57.6-57.6V381.248l-16.768 9.152a31.872 31.872 0 0 1-43.328-12.992 31.872 31.872 0 0 1 12.928-43.328l375.296-202.304A32.448 32.448 0 0 1 512 128.32a32.384 32.384 0 0 1 19.456 3.456zM512 193.92L228.352 346.752V832h576V351.488L512 193.92zM412.416 588.544a142.08 142.08 0 0 0 208.768 4.928 32 32 0 1 1 46.336 44.096 203.52 203.52 0 0 1-148.48 64.768 206.144 206.144 0 0 1-154.752-71.68 32 32 0 1 1 48.128-42.112z" p-id="7065" fill="#ffffff"></path></svg>