<?xml version="1.0" standalone="no"?><!DOCTYPE svg PUBLIC "-//W3C//DTD SVG 1.1//EN" "http://www.w3.org/Graphics/SVG/1.1/DTD/svg11.dtd"><svg t="1768807129826" class="icon" viewBox="0 0 1024 1024" version="1.1" xmlns="http://www.w3.org/2000/svg" p-id="5928" xmlns:xlink="http://www.w3.org/1999/xlink" width="96" height="96"><path d="M757.76 204.8h-122.88c0-67.584-55.296-122.88-122.88-122.88S389.12 137.216 389.12 204.8H266.24c-33.792 0-61.44 27.648-61.44 61.44v614.4c0 33.792 27.648 61.44 61.44 61.44h491.52c33.792 0 61.44-27.648 61.44-61.44v-614.4c0-33.792-27.648-61.44-61.44-61.44z m-245.76-30.72c16.87552 0 30.72 13.84448 30.72 30.72s-13.84448 30.72-30.72 30.72a30.80192 30.80192 0 0 1-30.72-30.72c0-16.87552 13.84448-30.72 30.72-30.72z m245.76 706.56H266.24v-614.4h61.44V327.68h368.64V266.24H757.76v614.4z m-92.16-245.76h-122.88v122.88h-61.44v-122.88h-122.88V573.44h122.88v-122.88h61.44v122.88h122.88v61.44z" p-id="5929" fill="#ffffff"></path></svg>