<?xml version="1.0" standalone="no"?><!DOCTYPE svg PUBLIC "-//W3C//DTD SVG 1.1//EN" "http://www.w3.org/Graphics/SVG/1.1/DTD/svg11.dtd"><svg t="1773400621011" class="icon" viewBox="0 0 1024 1024" version="1.1" xmlns="http://www.w3.org/2000/svg" p-id="6584" xmlns:xlink="http://www.w3.org/1999/xlink" width="48" height="48"><path d="M839.338667 145.749333h-13.653334v86.016c0 56.32-45.738667 102.4-102.4 102.4-56.32 0-102.4-46.08-102.4-102.4V145.749333h-217.770666v86.016c0 56.32-46.08 102.4-102.4 102.4-56.661333 0-102.4-46.08-102.4-102.4V145.749333h-13.653334C120.490667 145.749333 68.266667 197.973333 68.266667 262.144v551.594667c0 64.170667 52.224 116.394667 116.394666 116.394666h654.677334c64.170667 0 116.394667-52.224 116.394666-116.394666V262.144c0-64.170667-52.224-116.394667-116.394666-116.394667z m0 716.117334H184.661333c-26.624 0-48.128-21.504-48.128-48.128V402.773333h750.933334v410.965334c0 26.624-21.504 48.128-48.128 48.128z" p-id="6585"></path><path d="M451.072 726.903467h-22.186667v-214.9376a34.133333 34.133333 0 0 0-49.8688-30.3104l-63.931733 33.1776a34.133333 34.133333 0 0 0 31.4368 60.586666l14.062933-7.304533v158.788267h-26.965333a34.133333 34.133333 0 1 0 0 68.266666h117.4528a34.133333 34.133333 0 1 0 0-68.266666zM693.1456 726.903467h-22.2208v-214.9376a34.133333 34.133333 0 0 0-49.834667-30.3104l-63.931733 33.1776a34.133333 34.133333 0 0 0 31.402667 60.586666l14.097066-7.304533v158.788267h-26.965333a34.133333 34.133333 0 1 0 0 68.266666h117.418667a34.133333 34.133333 0 1 0 0-68.266666zM300.612267 265.796267a34.133333 34.133333 0 0 0 34.133333-34.133334V128a34.133333 34.133333 0 1 0-68.266667 0v103.6288a34.133333 34.133333 0 0 0 34.133334 34.133333zM723.3536 265.796267a34.133333 34.133333 0 0 0 34.133333-34.133334V128a34.133333 34.133333 0 1 0-68.266666 0v103.6288a34.133333 34.133333 0 0 0 34.133333 34.133333z" p-id="6586"></path></svg>