<?xml version="1.0" standalone="no"?><!DOCTYPE svg PUBLIC "-//W3C//DTD SVG 1.1//EN" "http://www.w3.org/Graphics/SVG/1.1/DTD/svg11.dtd"><svg t="1768811421820" class="icon" viewBox="0 0 1024 1024" version="1.1" xmlns="http://www.w3.org/2000/svg" p-id="9735" xmlns:xlink="http://www.w3.org/1999/xlink" width="96" height="96"><path d="M550.395728 927.15744c-19.624483 10.750804-33.958889 15.571601-46.288183 15.571601-12.414619 0-26.279743-4.778135-46.245522-15.955558-333.232261-186.304607-332.123051-288.351921-328.070169-668.043013 0.426619-37.7558 0.853238-78.071315 0.981224-121.159855 54.351287-16.21153 109.171855-30.716583 164.419042-43.515159 62.883671-14.590377 132.806559-24.061323 207.848877-28.114205 142.704124 16.040882 252.174612 37.158533 370.774751 71.800012 0.21331 48.762575 0.853238 93.813563 1.407843 135.536921 5.11943 381.653541 6.399288 472.352784-324.827863 653.879256m389.801968-654.775156c-0.639929-48.463942-1.365181-101.279399-1.493167-159.342273a32.764355 32.764355 0 0 0-23.165423-31.399174C783.116505 41.410646 664.942985 17.861266 507.520498 0.284555a34.769465 34.769465 0 0 0-5.204754-0.127986c-79.777791 4.180868-154.39349 14.20642-221.714001 29.863345A2713.255484 2713.255484 0 0 0 88.793748 81.640837a32.849679 32.849679 0 0 0-22.909451 31.441836C65.841635 165.343526 65.28703 213.42351 64.860411 258.005217c-4.138206 379.136488-5.674035 521.030035 361.559776 726.361859 30.289964 16.936782 53.498048 24.146647 77.687358 24.146647 23.720028 0 47.568041-7.252526 77.218076-23.506718 365.783307-200.511026 364.204816-319.239151 358.872075-712.624721m-208.275496 14.633039l-293.00207 297.652219-143.855996-146.074415a43.045878 43.045878 0 0 0-61.262518-0.127986 44.240412 44.240412 0 0 0-0.085324 62.030432l174.487255 177.217618a43.08854 43.08854 0 0 0 61.433166 0l323.675991-328.838083a44.19775 44.19775 0 0 0-0.127986-61.987771 42.917892 42.917892 0 0 0-61.262518 0.127986" fill="#003C64" p-id="9736"></path></svg>