<?xml version="1.0" standalone="no"?><!DOCTYPE svg PUBLIC "-//W3C//DTD SVG 1.1//EN" "http://www.w3.org/Graphics/SVG/1.1/DTD/svg11.dtd"><svg t="1768811437351" class="icon" viewBox="0 0 1024 1024" version="1.1" xmlns="http://www.w3.org/2000/svg" p-id="10785" xmlns:xlink="http://www.w3.org/1999/xlink" width="96" height="96"><path d="M768 160h-32V128c0-19.2-12.8-32-32-32s-32 12.8-32 32v32h-128V128c0-19.2-12.8-32-32-32s-32 12.8-32 32v32h-128V128c0-19.2-12.8-32-32-32s-32 12.8-32 32v32H256c-35.2 0-64 28.8-64 64v640c0 35.2 28.8 64 64 64h512c35.2 0 64-28.8 64-64V224c0-35.2-28.8-64-64-64z m0 704H256V224h512v640z" p-id="10786"></path><path d="M672 352H352c-19.2 0-32 12.8-32 32s12.8 32 32 32h320c19.2 0 32-12.8 32-32s-12.8-32-32-32zM672 512H352c-19.2 0-32 12.8-32 32s12.8 32 32 32h320c19.2 0 32-12.8 32-32s-12.8-32-32-32zM672 672H352c-19.2 0-32 12.8-32 32s12.8 32 32 32h320c19.2 0 32-12.8 32-32s-12.8-32-32-32z" p-id="10787"></path></svg>