<?xml version="1.0" standalone="no"?><!DOCTYPE svg PUBLIC "-//W3C//DTD SVG 1.1//EN" "http://www.w3.org/Graphics/SVG/1.1/DTD/svg11.dtd"><svg t="1768811391340" class="icon" viewBox="0 0 1024 1024" version="1.1" xmlns="http://www.w3.org/2000/svg" p-id="7729" xmlns:xlink="http://www.w3.org/1999/xlink" width="96" height="96"><path d="M853.333333 170.666667l-136.533333 0L640 85.333333 384 85.333333 307.2 170.666667 170.666667 170.666667C123.733333 170.666667 85.333333 209.066667 85.333333 256l0 512c0 46.933333 38.4 85.333333 85.333333 85.333333l682.666667 0c46.933333 0 85.333333-38.4 85.333333-85.333333L938.666667 256C938.666667 209.066667 900.266667 170.666667 853.333333 170.666667zM375.466667 469.333333c0 76.8 59.733333 136.533333 136.533333 136.533333 76.8 0 136.533333-59.733333 136.533333-136.533333l-72.533333 0L682.666667 362.666667l106.666667 106.666667L725.333333 469.333333c0 119.466667-93.866667 213.333333-213.333333 213.333333-119.466667 0-213.333333-93.866667-213.333333-213.333333L375.466667 469.333333z" p-id="7730"></path></svg>