<?xml version="1.0" standalone="no"?><!DOCTYPE svg PUBLIC "-//W3C//DTD SVG 1.1//EN" "http://www.w3.org/Graphics/SVG/1.1/DTD/svg11.dtd"><svg t="1774164085167" class="icon" viewBox="0 0 1024 1024" version="1.1" xmlns="http://www.w3.org/2000/svg" p-id="5826" xmlns:xlink="http://www.w3.org/1999/xlink" width="48" height="48"><path d="M839.196444 278.101333A32 32 0 0 0 808.789333 256h-72.789333V143.985778c0-17.692444-14.307556-32-32-32h-384c-17.692444 0-32 14.307556-32 32.028444V256h-72.817778a31.886222 31.886222 0 0 0-30.378666 22.101333l-72.817778 223.886223v378.026666c0 17.692444 14.307556 32 32.028444 32h736c17.692444 0 32-14.307556 32-32.028444V501.987556l-72.817778-223.886223z m-179.2 349.895111a8.021333 8.021333 0 0 1-7.992888 7.992889h-108.003556v108.003556a8.021333 8.021333 0 0 1-7.992889 8.021333h-48.014222a8.021333 8.021333 0 0 1-7.992889-8.021333V636.017778h-108.003556a8.021333 8.021333 0 0 1-7.992888-7.964445V579.982222c0-4.408889 3.584-8.021333 7.992888-8.021333h108.003556v-108.003556c0-4.380444 3.612444-7.964444 7.992889-7.964444h48.014222c4.380444 0 7.992889 3.584 7.992889 7.964444v108.003556h108.003556c4.408889 0 7.992889 3.612444 7.992888 8.021333v47.985778zM663.978667 256H360.021333V184.007111h304.014223V256z" fill="#ffffff" fill-opacity=".65" p-id="5827"></path></svg>