<?xml version="1.0" standalone="no"?><!DOCTYPE svg PUBLIC "-//W3C//DTD SVG 1.1//EN" "http://www.w3.org/Graphics/SVG/1.1/DTD/svg11.dtd"><svg t="1774164057366" class="icon" viewBox="0 0 1024 1024" version="1.1" xmlns="http://www.w3.org/2000/svg" p-id="5338" xmlns:xlink="http://www.w3.org/1999/xlink" width="48" height="48"><path d="M713.386667 353.621333l-74.069334-45.738666V258.048h9.557334c18.773333 0 34.133333-15.36 34.133333-34.133333V136.533333c0-18.773333-15.36-34.133333-34.133333-34.133333h-273.749334c-18.773333 0-34.133333 15.36-34.133333 34.133333v87.381334c0 18.773333 15.36 34.133333 34.133333 34.133333h9.216v49.834667L310.613333 353.621333a117.486933 117.486933 0 0 0-55.978666 100.352v349.525334A118.442667 118.442667 0 0 0 373.077333 921.6h277.845334a118.442667 118.442667 0 0 0 118.442666-118.101333V454.314667c0-41.301333-21.162667-78.848-55.978666-100.693334zM512 792.576c-95.914667 0-173.738667-77.482667-173.738667-173.397333s77.824-173.397333 173.738667-173.397334 173.738667 77.482667 173.738667 173.397334-77.824 173.397333-173.738667 173.397333z" p-id="5339" fill="#ffffff"></path><path d="M580.676267 585.045333H546.133333V550.570667a34.133333 34.133333 0 0 0-68.266666 0v34.542933h-34.5088a34.133333 34.133333 0 0 0 0 68.266667h34.474666v34.474666a34.133333 34.133333 0 0 0 68.266667 0v-34.474666h34.577067a34.133333 34.133333 0 0 0 0-68.266667z" p-id="5340" fill="#ffffff"></path></svg>