<?xml version="1.0" standalone="no"?><!DOCTYPE svg PUBLIC "-//W3C//DTD SVG 1.1//EN" "http://www.w3.org/Graphics/SVG/1.1/DTD/svg11.dtd"><svg t="1774164080635" class="icon" viewBox="0 0 1024 1024" version="1.1" xmlns="http://www.w3.org/2000/svg" p-id="5612" xmlns:xlink="http://www.w3.org/1999/xlink" width="48" height="48"><path d="M989.866667 409.6H34.133333c-10.24 0-17.066667 6.826667-17.066666 17.066667C17.066667 703.146667 252.586667 955.733333 512 955.733333s494.933333-252.586667 494.933333-529.066666c0-10.24-6.826667-17.066667-17.066666-17.066667zM512 375.466667h204.8c6.826667 0 10.24-3.413333 13.653333-6.826667L846.506667 204.8c51.2-3.413333 92.16-47.786667 92.16-102.4 0-58.026667-44.373333-102.4-102.4-102.4-54.613333 0-98.986667 40.96-102.4 95.573333l-235.52 252.586667c-3.413333 3.413333-6.826667 13.653333-3.413334 17.066667 3.413333 6.826667 10.24 10.24 17.066667 10.24z" fill="#ffffff" p-id="5613"></path><path d="M785.066667 921.6H238.933333c-27.306667 0-51.2 23.893333-51.2 51.2S211.626667 1024 238.933333 1024h546.133334c27.306667 0 51.2-23.893333 51.2-51.2S812.373333 921.6 785.066667 921.6z" fill="#ffffff" p-id="5614"></path></svg>