<?xml version="1.0" standalone="no"?><!DOCTYPE svg PUBLIC "-//W3C//DTD SVG 1.1//EN" "http://www.w3.org/Graphics/SVG/1.1/DTD/svg11.dtd"><svg t="1774164097775" class="icon" viewBox="0 0 1024 1024" version="1.1" xmlns="http://www.w3.org/2000/svg" p-id="6039" xmlns:xlink="http://www.w3.org/1999/xlink" width="48" height="48"><path d="M830.08 193.92a224.853333 224.853333 0 0 0-318.08 0L193.92 512A224.853333 224.853333 0 1 0 512 830.08L830.08 512a224.853333 224.853333 0 0 0 0-318.08z m-378.453333 576a139.52 139.52 0 1 1-197.333334-197.333333l126.293334-126.506667a320 320 0 0 0 197.546666 197.546667z m318.08-318.293333l-121.386667 121.6a234.666667 234.666667 0 0 1-197.546667-197.546667l121.6-121.386667a139.306667 139.306667 0 0 1 197.333334 0 139.733333 139.733333 0 0 1 0 197.333334z" p-id="6040" fill="#ffffff"></path></svg>