<?xml version="1.0" standalone="no"?><!DOCTYPE svg PUBLIC "-//W3C//DTD SVG 1.1//EN" "http://www.w3.org/Graphics/SVG/1.1/DTD/svg11.dtd"><svg t="1774164115030" class="icon" viewBox="0 0 1024 1024" version="1.1" xmlns="http://www.w3.org/2000/svg" p-id="6252" xmlns:xlink="http://www.w3.org/1999/xlink" width="48" height="48"><path d="M777.728 292.352c0-18.432-7.168-36.352-20.48-49.152-27.136-27.136-71.168-27.136-98.304 0l-127.488 127.488-13.824-13.824c-9.728-9.728-26.112-9.728-36.352 0l-5.12 5.12c-9.728 9.728-9.728 26.112 0 36.352l13.824 13.824-186.368 186.368 21.504 21.504-32.256 32.256 17.92 17.92 51.712-51.712-17.92-17.92-1.536 1.536-3.584-3.584L507.904 430.08l62.464 62.464L401.92 660.48l-3.584-3.584 1.536-1.536-17.92-17.92-51.712 51.712 17.92 17.92 32.256-32.256 21.504 21.504 186.368-186.368 16.384 16.384c9.728 9.728 26.112 9.728 36.352 0l5.12-5.12c9.728-9.728 9.728-26.112 0-36.352l-16.384-16.384 127.488-127.488c13.312-12.8 20.48-30.208 20.48-48.64zM267.264 772.608c0 23.552 18.432 42.496 40.96 42.496s40.96-18.944 40.96-42.496c0-23.552-40.96-76.288-40.96-76.288s-40.96 52.736-40.96 76.288z" p-id="6253" fill="#ffffff"></path></svg>