<?xml version="1.0" standalone="no"?><!DOCTYPE svg PUBLIC "-//W3C//DTD SVG 1.1//EN" "http://www.w3.org/Graphics/SVG/1.1/DTD/svg11.dtd"><svg t="1774164137354" class="icon" viewBox="0 0 1024 1024" version="1.1" xmlns="http://www.w3.org/2000/svg" p-id="7349" xmlns:xlink="http://www.w3.org/1999/xlink" width="48" height="48"><path d="M513.92 73.504l203.648 203.616 45.28-45.216a32 32 0 1 1 45.248 45.248l-45.28 45.248 203.68 203.648a32 32 0 0 1-45.248 45.28l-45.28-45.28-407.296 407.296a32 32 0 0 1-45.248 0L287.68 797.568 197.12 888.096a32 32 0 0 1-45.248-45.248l90.496-90.56-135.744-135.712a32 32 0 0 1 0-45.248L513.92 164l-45.248-45.248a32 32 0 1 1 45.28-45.248zM287.68 571.328a32 32 0 0 0 0 45.248l135.744 135.744a32 32 0 0 0 45.248-45.248l-135.744-135.744a32 32 0 0 0-45.248 0z" p-id="7350" fill="#ffffff"></path></svg>