<?xml version="1.0" standalone="no"?><!DOCTYPE svg PUBLIC "-//W3C//DTD SVG 1.1//EN" "http://www.w3.org/Graphics/SVG/1.1/DTD/svg11.dtd"><svg t="1768204665539" class="icon" viewBox="0 0 1024 1024" version="1.1" xmlns="http://www.w3.org/2000/svg" p-id="7113" xmlns:xlink="http://www.w3.org/1999/xlink" width="96" height="96"><path d="M739.84 690.432L333.504 284.224 413.632 204.16a285.696 285.696 0 0 1 148.224-78.848 288.128 288.128 0 0 1 212.992 42.048c32.512 21.504 60.352 49.28 81.856 81.856a288.064 288.064 0 0 1 0 316.16c-10.752 16.192-23.104 31.296-36.864 44.992l-80 80.064z m-332.544 213.568a287.744 287.744 0 0 1-158.08-47.36 290.048 290.048 0 0 1-81.92-81.856 288.064 288.064 0 0 1 0-316.16c10.752-16.192 23.104-31.296 36.864-44.992l80-80.064 406.272 406.208-80 80.064a285.696 285.696 0 0 1-203.136 84.16zM260.864 485.504c-67.84 67.84-73.408 172.608-12.416 233.6a34.816 34.816 0 0 0 49.28-49.152 72.448 72.448 0 0 1-17.92-29.312 84.224 84.224 0 0 1-3.648-17.152 93.76 93.76 0 0 1-0.256-18.112 103.232 103.232 0 0 1 10.112-36.736c6.016-12.672 14.144-24.128 24.064-33.984a34.752 34.752 0 1 0-49.28-49.152z" fill="#2c2c2c" p-id="7114"></path></svg>