<?xml version="1.0" standalone="no"?>
<!DOCTYPE svg PUBLIC "-//W3C//DTD SVG 1.1//EN" "http://www.w3.org/Graphics/SVG/1.1/DTD/svg11.dtd">
<svg t="1770373357562" class="icon" viewBox="0 0 1024 1024" version="1.1" xmlns="http://www.w3.org/2000/svg" p-id="12961" xmlns:xlink="http://www.w3.org/1999/xlink" width="96" height="96">
  <path d="M512 128c-106.666667 0-192 85.333333-192 192v85.333333H234.666667c-53.333333 0-96 42.666667-96 96v384c0 53.333333 42.666667 96 96 96h554.666666c53.333333 0 96-42.666667 96-96v-384c0-53.333333-42.666667-96-96-96h-85.333333v-85.333333c0-106.666667-85.333333-192-192-192z m0 85.333333c59.733333 0 106.666667 46.933333 106.666667 106.666667v85.333333h-213.333334v-85.333333c0-59.733333 46.933333-106.666667 106.666667-106.666667z m0 256c117.333333 0 213.333333 96 213.333333 213.333334s-96 213.333333-213.333333 213.333333-213.333333-96-213.333333-213.333333 96-213.333333 213.333333-213.333333z m0 85.333334c-70.4 0-128 57.6-128 128s57.6 128 128 128 128-57.6 128-128-57.6-128-128-128z" p-id="12962" fill="#94a3b8"></path>
</svg>
