<?xml version="1.0" standalone="no"?><!DOCTYPE svg PUBLIC "-//W3C//DTD SVG 1.1//EN" "http://www.w3.org/Graphics/SVG/1.1/DTD/svg11.dtd"><svg t="1770373283493" class="icon" viewBox="0 0 1024 1024" version="1.1" xmlns="http://www.w3.org/2000/svg" p-id="11977" xmlns:xlink="http://www.w3.org/1999/xlink" width="96" height="96"><path d="M853.333333 426.666667v85.333333c0 174.058667-130.293333 317.685333-298.666666 338.688V938.666667h128a42.666667 42.666667 0 0 1 0 85.333333H341.333333a42.666667 42.666667 0 0 1 0-85.333333h128v-87.978667C300.96 829.685333 170.666667 686.058667 170.666667 512v-85.333333a42.666667 42.666667 0 0 1 85.333333 0v85.333333c0 141.386667 114.613333 256 256 256s256-114.613333 256-256v-85.333333a42.666667 42.666667 0 0 1 85.333333 0zM512 0c-94.261333 0-170.666667 76.405333-170.666667 170.666667v341.333333c0 94.261333 76.405333 170.666667 170.666667 170.666667s170.666667-76.405333 170.666667-170.666667V170.666667c0-94.261333-76.405333-170.666667-170.666667-170.666667z m0 597.333333a85.333333 85.333333 0 0 1-85.333333-85.333333V170.666667a85.333333 85.333333 0 0 1 170.666666 0v341.333333a85.333333 85.333333 0 0 1-85.333333 85.333333z" p-id="11978"></path></svg>