<?xml version="1.0" standalone="no"?><!DOCTYPE svg PUBLIC "-//W3C//DTD SVG 1.1//EN" "http://www.w3.org/Graphics/SVG/1.1/DTD/svg11.dtd"><svg t="1773389815340" class="icon" viewBox="0 0 1024 1024" version="1.1" xmlns="http://www.w3.org/2000/svg" p-id="12726" xmlns:xlink="http://www.w3.org/1999/xlink" width="48" height="48"><path d="M725.333333 896a429.653333 429.653333 0 0 1-202.24-50.773333l-19.2-10.666667a768 768 0 0 1-312.746666-312.746667l-10.666667-19.2A429.653333 429.653333 0 0 1 128 298.666667v-28.586667a85.333333 85.333333 0 0 1 25.173333-60.586667l72.106667-72.106666a32 32 0 0 1 50.346667 6.4l96 164.693333a42.666667 42.666667 0 0 1-6.826667 51.626667l-80.64 80.64a21.333333 21.333333 0 0 0-3.84 25.173333l14.933333 28.16a577.28 577.28 0 0 0 234.666667 234.24l28.16 15.36a21.333333 21.333333 0 0 0 25.173333-3.84l80.64-80.64a42.666667 42.666667 0 0 1 51.626667-6.826667l164.693333 96a32 32 0 0 1 6.4 50.346667l-72.106666 72.106667a85.333333 85.333333 0 0 1-60.586667 25.173333z" p-id="12727"></path></svg>