<?xml version="1.0" standalone="no"?><!DOCTYPE svg PUBLIC "-//W3C//DTD SVG 1.1//EN" "http://www.w3.org/Graphics/SVG/1.1/DTD/svg11.dtd"><svg t="1773385403168" class="icon" viewBox="0 0 1024 1024" version="1.1" xmlns="http://www.w3.org/2000/svg" p-id="6889" xmlns:xlink="http://www.w3.org/1999/xlink" width="48" height="48"><path d="M682.666667 170.666667c0-47.36 37.973333-85.333333 85.333333-85.333334 47.36 0 85.333333 37.973333 85.333333 85.333334 0 47.36-37.973333 85.333333-85.333333 85.333333-47.36 0-85.333333-37.973333-85.333333-85.333333z m170.666666 725.333333v-213.333333h47.36c29.013333 0 49.493333-28.586667 40.533334-56.32l-89.6-269.226667A85.76 85.76 0 0 0 770.56 298.666667h-5.12a85.333333 85.333333 0 0 0-81.066667 58.453333l-36.693333 110.08c46.08 25.6 77.653333 73.813333 77.653333 130.133333v341.333334h85.333334c23.466667 0 42.666667-19.2 42.666666-42.666667z m-320-405.333333c35.413333 0 64-28.586667 64-64s-28.586667-64-64-64S469.333333 391.253333 469.333333 426.666667s28.586667 64 64 64zM234.666667 256c47.36 0 85.333333-37.973333 85.333333-85.333333 0-47.36-37.973333-85.333333-85.333333-85.333334-47.36 0-85.333333 37.973333-85.333334 85.333334 0 47.36 37.973333 85.333333 85.333334 85.333333z m85.333333 640v-256H341.333333c23.466667 0 42.666667-19.2 42.666667-42.666667V384c0-46.933333-38.4-85.333333-85.333333-85.333333H170.666667c-46.933333 0-85.333333 38.4-85.333334 85.333333v213.333333c0 23.466667 19.2 42.666667 42.666667 42.666667h21.333333v256c0 23.466667 19.2 42.666667 42.666667 42.666667h85.333333c23.466667 0 42.666667-19.2 42.666667-42.666667z m106.666667-298.666667v128c0 23.466667 19.2 42.666667 42.666666 42.666667v128c0 23.466667 19.2 42.666667 42.666667 42.666667h42.666667c23.466667 0 42.666667-19.2 42.666666-42.666667v-128c23.466667 0 42.666667-19.2 42.666667-42.666667v-128c0-34.986667-29.013333-64-64-64h-85.333333c-34.986667 0-64 29.013333-64 64z" fill="#6589FF" p-id="6890"></path></svg>