<?xml version="1.0" standalone="no"?><!DOCTYPE svg PUBLIC "-//W3C//DTD SVG 1.1//EN" "http://www.w3.org/Graphics/SVG/1.1/DTD/svg11.dtd"><svg t="1773384500836" class="icon" viewBox="0 0 1024 1024" version="1.1" xmlns="http://www.w3.org/2000/svg" p-id="5596" width="48" height="48" xmlns:xlink="http://www.w3.org/1999/xlink"><path d="M384 213.333333a128 128 0 0 0 0 256v85.333334a213.333333 213.333333 0 0 0-213.333333 213.333333v170.666667H85.333333v-170.666667a298.666667 298.666667 0 0 1 160-264.533333A213.333333 213.333333 0 0 1 384 128h42.666667v85.333333H384z m256 0a128 128 0 1 0 0 256 128 128 0 0 0 0-256z m-213.333333 128a213.333333 213.333333 0 1 1 426.666666 0 213.333333 213.333333 0 0 1-426.666666 0zM298.666667 810.666667a213.333333 213.333333 0 0 1 213.333333-213.333334h128v85.333334h-128a128 128 0 0 0-128 128v42.666666h256v85.333334H298.666667v-128z m597.333333-213.333334v128h128v85.333334h-128v128h-85.333333v-128h-128v-85.333334h128v-128h85.333333z" fill="#6589FF" p-id="5597"></path></svg>