<?xml version="1.0" standalone="no"?><!DOCTYPE svg PUBLIC "-//W3C//DTD SVG 1.1//EN" "http://www.w3.org/Graphics/SVG/1.1/DTD/svg11.dtd"><svg t="1768204640760" class="icon" viewBox="0 0 1024 1024" version="1.1" xmlns="http://www.w3.org/2000/svg" p-id="4779" xmlns:xlink="http://www.w3.org/1999/xlink" width="96" height="96"><path d="M512 726.17472H451.31264v223.68256a30.72 30.72 0 0 1-30.72 30.72H181.53472a30.72 30.72 0 0 1-30.72-30.72v-436.46464c-39.07072-5.54496-88.12544-17.536-112.62976-34.82112-20.23936-14.27456-28.47232-32.5632-26.22464-51.18464 1.69984-14.13632 10.79296-32.32768 37.02272-49.80736l431.7952-323.95264C490.09152 46.6432 500.0448 42.73664 512 42.48064c12.09856-0.25088 21.90848 4.16256 31.22176 11.14624l431.73376 323.91168c26.28608 17.50528 35.3792 35.70688 37.08416 49.84832 2.24768 18.62144-5.98528 36.91008-26.22464 51.18464-24.50432 17.28512-73.55904 29.27616-112.62976 34.82112v436.46464a30.72 30.72 0 0 1-30.72 30.72h-239.05792a30.72 30.72 0 0 1-30.72-30.72v-223.68256H512z" fill="#2c2c2c" p-id="4780"></path></svg>