<?xml version="1.0" standalone="no"?><!DOCTYPE svg PUBLIC "-//W3C//DTD SVG 1.1//EN" "http://www.w3.org/Graphics/SVG/1.1/DTD/svg11.dtd"><svg t="1768208077149" class="icon" viewBox="0 0 1024 1024" version="1.1" xmlns="http://www.w3.org/2000/svg" p-id="10993" xmlns:xlink="http://www.w3.org/1999/xlink" width="96" height="96"><path d="M810.666667 810.666667 213.333333 810.666667 213.333333 341.333333 810.666667 341.333333M810.666667 128 768 128 768 42.666667 682.666667 42.666667 682.666667 128 341.333333 128 341.333333 42.666667 256 42.666667 256 128 213.333333 128C165.973333 128 128 166.4 128 213.333333L128 810.666667C128 857.6 166.4 896 213.333333 896L810.666667 896C857.6 896 896 857.6 896 810.666667L896 213.333333C896 166.4 857.6 128 810.666667 128M705.28 471.893333 660.053333 426.666667 451.84 634.88 361.386667 544.426667 316.16 589.653333 451.84 725.333333 705.28 471.893333Z" p-id="10994"></path></svg>