<?xml version="1.0" standalone="no"?><!DOCTYPE svg PUBLIC "-//W3C//DTD SVG 1.1//EN" "http://www.w3.org/Graphics/SVG/1.1/DTD/svg11.dtd"><svg t="1768208239242" class="icon" viewBox="0 0 1024 1024" version="1.1" xmlns="http://www.w3.org/2000/svg" p-id="17155" xmlns:xlink="http://www.w3.org/1999/xlink" width="96" height="96"><path d="M513.792 85.290667c-236.288 0-427.861333 190.976-427.861333 426.581333 0 235.605333 191.573333 426.624 427.861333 426.624 115.328 0 223.786667-45.482667 303.530667-125.312a42.112 42.112 0 0 0 0-59.989333 42.410667 42.410667 0 0 0-60.16 0 342.954667 342.954667 0 0 1-243.370667 99.968c-189.013333 0-342.272-152.789333-342.272-341.333334C171.52 323.413333 324.778667 170.666667 513.792 170.666667c23.637333 0 42.794667-19.114667 42.794667-42.666667s-19.157333-42.666667-42.794667-42.666667z m156.458667 38.656a40.874667 40.874667 0 0 0-24.064 21.333333c-10.410667 21.162667-2.474667 46.933333 18.773333 57.344 11.349333 5.546667 21.376 11.818667 32.042667 18.645333a44.245333 44.245333 0 0 0 60.16-13.312 42.410667 42.410667 0 0 0-13.354667-58.666666 415.146667 415.146667 0 0 0-41.472-22.656 42.069333 42.069333 0 0 0-32.085333-2.688z m151.082666 105.301333a44.8 44.8 0 0 0-32.085333 9.344 42.581333 42.581333 0 0 0-6.656 59.989333c7.808 9.941333 16 19.925333 22.698667 30.677334a42.666667 42.666667 0 0 0 58.88 13.312 40.832 40.832 0 0 0 13.354666-57.301334 455.68 455.68 0 0 0-28.117333-40.021333 41.770667 41.770667 0 0 0-28.074667-16z m-307.541333 26.666667c-23.594667 0-42.752 19.114667-42.752 42.666666v213.290667c0 11.349333 5.333333 22.613333 13.354667 30.677333l128.341333 127.957334a42.453333 42.453333 0 0 0 60.202667 0 43.818667 43.818667 0 0 0 0-61.312l-116.352-115.968V298.581333c0-23.552-19.157333-42.666667-42.794667-42.666666z m366.378667 129.28a42.112 42.112 0 0 0-32.085334 50.688c2.730667 12.330667 5.376 24.746667 6.698667 37.333333a42.069333 42.069333 0 0 0 46.805333 37.333333 41.941333 41.941333 0 0 0 37.418667-46.634666c-1.664-15.786667-3.242667-31.274667-6.698667-46.677334-5.077333-23.04-29.013333-37.12-52.138666-32z m18.773333 173.354666a43.648 43.648 0 0 0-52.181333 32c-2.986667 12.330667-7.68 24.149333-12.032 35.968-8.106667 22.144 4.522667 45.226667 26.752 53.333334 22.186667 8.064 45.397333-1.834667 53.461333-23.978667 5.418667-14.848 10.965333-29.909333 14.72-45.354667 5.546667-22.869333-7.808-46.421333-30.72-51.968z" fill="#000000" p-id="17156"></path></svg>